<svg width="423" height="417" viewBox="0 0 423 417" fill="none" xmlns="http://www.w3.org/2000/svg">
<path d="M213.277 402.887C319.253 402.418 404.781 316.12 404.312 210.137C403.842 104.154 317.551 18.619 211.576 19.0888C105.601 19.5585 20.0722 105.856 20.542 211.839C21.0118 317.822 107.302 403.357 213.277 402.887Z" fill="#262523"/>
<path d="M45.3393 170.918L44.3372 170.75C44.3867 170.455 49.5325 141.014 69.8307 118.363L70.586 119.041C50.4851 141.472 45.3888 170.628 45.3393 170.918Z" fill="white"/>
<path d="M72.8276 99.7032L71.9864 99.1375C72.148 98.8979 88.3697 75.1419 114.511 63.4712L114.927 64.3996C89.0595 75.9471 72.9892 99.4686 72.8276 99.7032Z" fill="white"/>
<path d="M393.093 206.705L392.076 206.71C391.914 170.226 375.212 137.232 375.043 136.902L375.946 136.44C376.115 136.77 392.93 169.972 393.093 206.705Z" fill="white"/>
<path d="M373.216 187.771C372.369 173.241 367.582 161.031 367.536 160.909L368.48 160.534C368.526 160.656 373.369 173.013 374.232 187.71L373.216 187.771Z" fill="white"/>
<path d="M13.4176 164.146L12.4203 163.937C12.48 163.642 18.7702 134.348 41.1366 104.673L41.9476 105.284C19.7176 134.781 13.4773 163.856 13.4176 164.146Z" fill="#262523"/>
<path d="M44.8335 82.2179L44.0529 81.5707C44.1136 81.4993 50.0445 74.3662 57.6169 67.1547L58.3165 67.8887C50.7846 75.0594 44.8891 82.1465 44.8335 82.2179Z" fill="#262523"/>
<path d="M69.9111 67.8018L69.1356 67.1444C69.2216 67.0423 77.8892 56.9385 94.4656 45.5186C109.755 34.9839 135.099 21.1359 169.032 14.9615L169.214 15.9621C135.459 22.1052 110.247 35.8815 95.0437 46.3548C78.5738 57.698 69.992 67.6998 69.9111 67.8018Z" fill="#262523"/>
<path d="M403.534 144.736C394.824 109.902 367.547 79.9183 367.272 79.6195L368.021 78.9299C368.297 79.2287 395.747 109.41 404.519 144.488L403.534 144.736Z" fill="#262523"/>
<path d="M411.296 195.471C410.228 182.792 407.76 171.701 405.878 164.628L406.863 164.364C408.755 171.478 411.239 182.63 412.312 195.385L411.296 195.471Z" fill="#262523"/>
<path d="M417.024 243.383L416.032 243.159C416.889 239.373 417.633 235.267 418.245 230.959L419.252 231.102C418.635 235.436 417.881 239.567 417.024 243.383Z" fill="#262523"/>
<path d="M421.048 212.066L420.031 212.015C420.764 197.371 419.995 183.257 418.112 176.896L419.086 176.607C421.001 183.07 421.786 197.321 421.048 212.066Z" fill="#262523"/>
<path d="M405.257 258.452L404.29 258.146C406.05 252.587 407.53 244.854 408.692 235.175L409.699 235.297C408.532 245.037 407.037 252.827 405.257 258.452Z" fill="#262523"/>
<path d="M410.576 226.799L409.564 226.712C409.917 222.684 410.068 220.009 410.068 219.979L411.085 220.035C411.08 220.061 410.929 222.761 410.576 226.799Z" fill="#262523"/>
<path d="M306.796 35.6813C280.08 18.8411 235.435 13.2133 234.988 13.1593L235.11 12.1522C235.222 12.167 246.528 13.5708 261.005 17.0498C274.378 20.2643 293.267 25.9555 307.341 34.8248L306.796 35.6813Z" fill="#262523"/>
<path d="M284.492 17.5252C277.331 14.4051 260.708 10.7323 260.541 10.6974L260.76 9.70517C260.928 9.74001 277.647 13.4328 284.9 16.5982L284.492 17.5252Z" fill="#262523"/>
<path d="M69.7351 358.321C67.5723 356.627 65.4347 354.853 63.3833 353.052L64.0559 352.286C66.0971 354.077 68.2195 355.842 70.3669 357.52L69.7351 358.321Z" fill="#262523"/>
<path d="M52.4886 342.435C23.2168 310.793 17.4819 276.148 17.4245 275.803L18.4303 275.646C18.4827 275.992 24.1806 310.341 53.2327 341.745L52.4886 342.435Z" fill="#262523"/>
<path d="M60.4628 339.771C49.9943 331.216 40.158 311.633 40.0606 311.435L40.9684 310.983C41.0659 311.176 50.8098 330.567 61.1049 338.986L60.4628 339.771Z" fill="#262523"/>
<path d="M161.783 404.595C146.943 401.824 132.271 396.846 118.175 389.797L118.628 388.885C132.643 395.889 147.223 400.836 161.971 403.592L161.783 404.595Z" fill="#262523"/>
<path d="M100.165 379.399C92.8538 374.552 88.7561 370.95 88.7153 370.915L89.3879 370.155C89.4288 370.19 93.4806 373.751 100.725 378.553L100.165 379.399Z" fill="#262523"/>
<path d="M222.537 415.006L222.481 413.989C226.242 413.79 229.921 413.489 233.411 413.097L233.527 414.108C230.017 414.505 226.318 414.806 222.537 415.006Z" fill="#262523"/>
<path d="M209.175 415.299C185.903 415.148 166.389 411.747 166.191 411.713L166.37 410.71C166.563 410.745 186.001 414.136 209.18 414.282L209.175 415.299Z" fill="#262523"/>
<path d="M97.6617 349.097C65.4982 326.756 53.5271 291.143 53.4086 290.787L54.373 290.468C54.4915 290.823 66.3646 326.121 98.2425 348.261L97.6617 349.097Z" fill="white"/>
<path d="M167.939 387.69C142.753 383.379 117.482 366.644 117.232 366.473L117.798 365.626C118.048 365.793 143.146 382.412 168.113 386.683L167.939 387.69Z" fill="white"/>
<path d="M126.403 357.317C119.694 355.247 111.574 347.785 111.232 347.472L111.92 346.726C112.001 346.802 120.214 354.345 126.698 356.35L126.403 357.317Z" fill="white"/>
<path d="M241.569 15.094C236.46 18.2051 214.242 31.2086 198.205 43.4394C195.653 45.3864 193.752 48.0552 192.751 51.1053C190.672 57.4546 188.806 64.5054 188.278 66.5489C188.156 67.0217 188.217 67.5249 188.461 67.9469C189.96 70.5903 198.18 79.6897 242.962 95.5298L253.473 72.7914C253.473 72.7914 246.835 30.4817 244.797 16.3496C244.588 14.9313 242.957 14.2501 241.569 15.094Z" fill="white"/>
<path d="M342.712 269.389L287.586 275.866C278.645 276.918 270.827 282.393 266.786 290.44L242.113 340.019C241.061 342.114 238.722 343.227 236.435 342.724L227.667 340.792C221.516 339.435 215.371 343.085 213.617 349.134L212.245 353.877C211.482 356.505 212.682 359.301 215.111 360.561L255.588 381.541C258.272 382.929 261.571 381.999 263.131 379.411L303.811 313.158L360.035 309.615L342.712 269.389Z" fill="#666666"/>
<path d="M311.512 227.054L315.532 216.969L348.791 218.753L336.709 264.418L311.512 227.054Z" fill="#262523"/>
<path d="M307.313 202.679C307.313 202.679 310.968 193.219 310.912 188.079C310.841 181.242 311.583 167.329 307.227 167.984C304.573 168.381 303.78 174.817 303.455 177.582C303.328 178.675 302.906 179.722 302.174 180.546C301.132 181.72 299.653 182.172 298.875 176.85C297.609 168.178 297.884 151.489 292.847 154.544C290.295 156.094 291.662 171.248 290.219 170.577C288.775 169.906 288.953 147.02 282.813 149.516C280.784 150.34 281.242 161.274 281.659 167.39C281.684 167.73 281.186 167.801 281.11 167.466C280.281 163.77 279.01 158.387 277.994 155.23C276.901 151.829 274.359 153.608 274.359 156.089C274.359 161.427 275.264 172.666 275.264 172.666L307.313 202.679Z" fill="#262523"/>
<path d="M392.684 233.043L401.833 248.802L380.485 317.428C378.482 324.388 370.522 328.729 363.375 327.54L335.896 324.489C332.368 323.9 331.102 325.709 332.337 329.065L344.196 383.483C346.209 388.958 343.088 394.977 337.451 396.487L296.563 407.416C292.603 408.474 288.648 405.708 288.287 401.626L285.934 387.58C285.837 386.508 285.532 382.202 287.967 380.464C291.525 377.922 297.117 374.363 297.117 374.363C299.003 373.352 299.196 370.327 298.642 368.263L283.108 307.851C280.571 298.401 286.452 291.076 296.105 289.469C308.305 287.436 328.637 282.861 328.637 282.861L337.344 226.053C338.488 221.544 342.651 218.458 347.302 218.682L360.66 219.317L392.684 233.043Z" fill="#666666"/>
<path d="M387.436 218.108C390.213 206.346 382.93 194.559 371.168 191.781C359.406 189.004 347.62 196.288 344.843 208.05C342.066 219.813 349.349 231.6 361.111 234.377C372.872 237.155 384.658 229.871 387.436 218.108Z" fill="#666666"/>
<path d="M167.417 212.78L240.136 146.99C243.892 143.589 249.387 143.858 253.835 146.283C262.827 151.189 278.249 159.958 292.004 174.863C303.552 187.378 322.741 207.249 325.008 224.071C325.267 225.997 324.596 227.929 323.249 229.327C301.077 252.299 255.975 294.609 250.932 298.909C238.997 309.092 208.046 286.104 190.413 265.608C183.048 257.052 158.201 221.473 167.417 212.78Z" fill="white"/>
<path d="M404.324 237.069C397.574 230.425 386.035 230.821 378.919 236.922L353.691 259.899C352.309 261.048 350.26 260.87 349.096 259.502L331.224 238.609C328.347 235.239 326.609 231.05 326.253 226.638L325.607 218.672C325.561 218.133 325.434 217.604 325.221 217.106L321.963 208.718C321.515 207.564 319.96 207.422 319.284 208.459C318.369 209.867 317.871 211.987 317.871 214.092C317.871 218.158 318.826 222.551 317.301 222.551C315.268 222.551 312.854 218.555 311.822 214.803C310.637 210.487 310.048 207.046 307.959 205.135C307.013 204.27 305.331 204.84 305.071 206.278C304.467 209.593 305.163 215.835 305.219 219.378C305.234 220.395 304.324 220.375 304.045 219.14C303.186 215.312 300.842 203.615 300.842 203.615C300.471 202.074 298.347 201.896 297.731 203.36C295.973 207.564 296.628 216.71 296.949 220.11C296.979 220.41 296.573 220.532 296.435 220.268C295.586 218.682 294.087 215.561 293.014 211.585C292.775 210.701 291.566 210.508 291.118 211.306C289.771 213.731 290.458 219.521 290.819 221.9C290.854 222.124 290.549 222.225 290.437 222.032C289.853 221.005 289.405 220.034 288.953 218.875C288.368 217.376 287.113 218.235 287.006 219.185C286.65 222.393 286.467 226.978 287.83 232.855C288.323 234.975 290.107 241.334 298.103 250.896L340.801 298.172C348.425 307.831 358.195 305.284 363.674 301.222C377.399 291.055 402.733 266.009 402.733 266.009C412.37 257.876 410.352 243.001 404.324 237.069Z" fill="#666666"/>
<path d="M213.383 252.009C187.866 224.731 174.564 216.867 168.067 216.14C166.629 215.978 165.383 217.101 165.394 218.55C165.47 231.838 184.186 258.379 190.408 265.618C204.61 282.134 227.468 300.267 242.057 301.36C243.175 301.441 244.08 300.47 243.953 299.362C243.068 291.564 236.908 277.157 213.383 252.009Z" fill="#F2BDBA"/>
<path d="M188.679 68.318C190.697 73.1778 213.886 88.1283 242.951 95.5349L243.815 93.6693C232.536 83.7819 213.037 73.859 198.56 70.1226C193.253 68.7552 190.361 68.1197 188.679 68.318Z" fill="#F2BDBA"/>
<path d="M244.339 24.8897C241.676 22.6683 238.509 21.1941 234.936 20.5078L235.129 19.5114C238.875 20.2333 242.189 21.7787 244.99 24.1069L244.339 24.8897Z" fill="black"/>
<path d="M283.205 193.508L272.444 184.495C270.756 183.082 268.565 182.426 266.379 182.691C257.662 183.738 234.869 186.803 227.23 191.002C224.398 192.558 218.268 199.349 218.268 199.349C216.047 201.652 216.037 205.297 218.248 207.615L232.236 223.074C233.207 224.146 234.844 224.268 235.962 223.353L247.145 214.193C248.355 213.202 248.477 211.392 247.409 210.243L245.158 207.834C244.258 206.99 244.675 205.48 245.884 205.221L282.249 197.412C284.059 197.011 284.633 194.703 283.205 193.508ZM266.446 209.272C264.697 208.032 262.521 207.925 260.875 209.287L227.092 237.191C225.059 238.868 224.932 242.95 226.655 244.948C227.992 246.499 230.686 249.589 231.992 251.175C234.407 254.108 238.372 254.2 240.319 252.426L249.438 244.114C250.266 243.362 251.547 243.413 252.31 244.231L254.241 246.305C255.608 247.739 257.865 247.81 259.319 246.468L269.389 237.165C271.295 235.401 271.31 232.392 269.414 230.613L268.484 229.738C267.615 228.925 267.625 227.537 268.504 226.739L273.14 222.515C274.868 220.939 275.483 217.406 273.303 215.347C273.308 215.347 268.708 210.884 266.446 209.272Z" fill="#615EDF"/>
<path d="M192.801 71.0375C199.211 76.0853 215.965 85.2661 236.658 91.9814L237.339 90.5529C228.79 83.2886 209.316 74.2655 193.218 70.1885C192.715 70.0614 192.39 70.7172 192.801 71.0375Z" fill="black"/>
<path d="M169.744 221.422C172.652 217.742 198.342 241.71 207.049 250.591C221.953 265.785 243.596 295.193 238.381 296.566C235.133 297.42 215.039 286.165 193.828 262.186C177.689 243.937 167.95 223.694 169.744 221.422Z" fill="black"/>
<path d="M341.385 9.33951L340.633 4.77455C340.008 0.977194 336.251 -0.883355 332.622 0.407847C327.864 2.09556 321.693 4.09845 318.349 6.70119C317.022 7.73313 316.3 9.35985 316.437 11.0323C317.662 25.8913 319.065 37.4714 319.731 42.5854C319.965 44.4002 319.365 46.2252 318.095 47.5418L303.252 62.9803L318.303 70.6767L346.479 44.4206L341.385 9.33951Z" fill="#666666"/>
<path d="M242.956 95.5349L253.722 72.2476C255.588 68.2164 259.522 65.5475 263.954 65.2984L286.264 64.0632C291.754 63.7582 297.096 62.1721 301.864 59.4321C305.768 57.1903 310.571 57.2107 314.455 59.4931C317.007 60.9928 320.229 60.7132 322.486 58.7967L330.543 51.9543C331.468 51.1664 331.966 49.9921 331.89 48.7823C331.463 42.3059 330.106 21.0977 329.933 10.7579C329.907 9.31925 330.716 7.99247 332.007 7.36211C337.369 4.74413 345.767 3.46817 352.202 4.5662C353.793 4.83563 355.038 6.14208 355.14 7.75354C355.572 14.8094 350.753 22.3685 350.753 22.3685L354.998 54.2775C355.933 61.313 352.929 68.2926 347.18 72.4509L320.377 91.8291C318.343 93.2982 316.229 94.6606 314.043 95.8959C308.853 98.8392 303.303 101.096 297.533 102.606L276.992 107.979L242.956 95.5349Z" fill="#666666"/>
<path d="M252.192 74.6111L264.671 72.72L274.37 83.0242L255.572 100.913L245.63 89.6785L252.192 74.6111Z" fill="#262523"/>
<path d="M282.72 68.7786C285.162 59.4346 279.568 49.8798 270.225 47.4373C260.881 44.9949 251.327 50.5896 248.885 59.9336C246.443 69.2776 252.037 78.8324 261.38 81.2749C270.724 83.7174 280.278 78.1226 282.72 68.7786Z" fill="#666666"/>
<path d="M221.032 57.9425L224.342 52.8336C224.901 51.9694 224.56 50.8104 223.62 50.3885L222.237 49.7683C221.404 49.3921 221.297 48.2534 222.049 47.7298L236.826 37.4866C237.573 36.9681 237.405 35.8192 236.541 35.5295L229.775 33.2978C228.972 33.0335 228.098 33.1504 227.391 33.6181L212.844 43.2513C211.949 43.841 211.227 44.6543 210.739 45.6049L208.696 49.5904C207.664 51.6034 208.548 54.0689 210.622 54.9636L218.953 58.5678C219.711 58.8982 220.59 58.6288 221.032 57.9425ZM238.503 55.6855L237.751 55.2178C237.08 54.8009 236.826 53.952 237.151 53.2352L238.147 51.0493C238.732 49.7683 238.234 48.2534 237.004 47.5672L233.664 45.7066C232.352 44.9797 230.7 45.4524 229.984 46.769L219.894 65.161C219.223 66.3862 219.594 67.9214 220.753 68.7042L224.326 71.1087C225.643 71.9932 227.437 71.5561 228.205 70.1683L231.097 64.8967C231.529 64.1139 232.525 63.8495 233.288 64.3121L233.684 64.5561C234.553 65.0899 235.692 64.7645 236.15 63.8546L239.133 57.9578C239.55 57.1495 239.271 56.1633 238.503 55.6855Z" fill="#615EDF"/>
<path d="M295.694 73.1218C290.804 68.7551 283.347 69.0144 278.767 73.7013L265.155 87.6402C264.092 88.7281 262.527 89.1602 261.058 88.7738L240.822 83.4616C239.424 83.0956 238.158 82.3433 237.167 81.291L231.357 75.1298C230.874 74.6164 230.005 74.7079 229.695 75.3382C229.375 75.9838 229.177 77.0412 229.507 78.7543C230.239 82.5669 228.028 82.5567 225.781 80.7572C224.622 79.832 222.828 78.3883 221.364 77.2039C220.251 76.3041 218.609 77.1073 218.604 78.5357C218.594 80.2743 218.843 82.267 219.844 83.3803C217.801 89.5109 221.232 96.7905 226.666 99.7287C232.938 103.119 266.746 113.566 266.746 113.566C270.029 114.537 273.583 113.627 275.997 111.202L296.212 90.8987C301.174 85.9271 300.935 77.8037 295.694 73.1218Z" fill="#666666"/>
<path d="M255.232 52.7677C253.067 54.3385 251.379 56.6007 250.378 59.2949C248.121 65.3697 250.251 71.8969 255.009 75.7959C257.571 77.8954 261.479 78.3935 265.363 75.9941C267.889 74.4335 269.8 71.9223 270.909 68.9434C272.85 63.7226 271.539 58.3087 268.072 54.43C265.226 51.2529 258.841 50.1447 255.232 52.7677Z" fill="black"/>
<path d="M128.647 249.676C126.705 242.274 124.545 232.738 123.407 229.5C123.361 229.373 123.203 229.022 123.086 228.945C122.065 228.264 116.067 225.392 109.123 226.551C106.973 226.912 99.5922 226.226 96.6389 228.468C95.724 229.159 95.3784 230.328 95.297 231.472C94.8802 237.638 93.8534 256.691 94.0262 263.122C94.0567 264.276 94.8497 265.313 95.9832 265.541C108.493 268.088 123.041 266.914 129.521 262.019C130.238 261.475 130.64 260.616 130.558 259.716C130.396 257.992 129.948 254.632 128.647 249.676Z" fill="white"/>
<path d="M57.1695 200.3L36.5016 193.839C35.4291 193.503 34.7581 192.436 34.9157 191.323L38.1079 168.991C38.3315 167.415 37.2387 165.956 35.6629 165.727L22.7519 163.755C22.147 163.668 20.8457 164.121 20.8457 165.859C20.8457 166.708 21.0795 167.181 21.5116 167.7L23.8447 170.511C24.2819 171.034 24.47 171.726 24.3581 172.397L21.598 189.477L31.0475 209.603L54.0078 212.058L57.1695 200.3Z" fill="#666666"/>
<path d="M16.3372 171.487L34.3008 199.746C34.7837 200.509 35.5563 201.047 36.4357 201.246L40.4615 202.14C41.7984 202.435 43.1962 202.201 44.3602 201.49L45.9157 200.539C49.0011 198.648 52.7575 198.206 56.1987 199.329L80.8416 207.366L73.6388 229.83L49.3417 223.903C47.2322 223.389 45.1583 222.759 43.12 222.012C40.0904 220.903 35.658 219.211 32.9589 217.884C26.0001 214.463 23.7178 211.799 22.5843 209.674C18.9803 202.918 10.0748 187.607 8.95144 185.797C7.49259 183.448 4.28514 183.245 2.58231 182.803C1.53011 182.528 0.757484 182.066 0.330504 181.064L0.111935 180.556C-0.147302 179.951 0.0560275 179.249 0.594835 178.873L12.3978 170.628C13.7092 169.713 15.5239 170.104 16.3372 171.487Z" fill="#666666"/>
<path d="M91.831 222.744L113.576 222.728C115.35 222.718 117.18 223.247 118.116 224.319C118.675 224.96 119.671 226.343 120.2 227.009C120.566 227.476 120.434 228.081 119.905 227.954L117.267 227.009L117.734 228.625C118.055 229.499 117.257 229.896 116.581 229.555L113.953 228.315C114.019 229.047 113.246 229.566 112.59 229.225C111.381 228.595 110.918 228.188 109.246 227.049C108.829 226.77 108.336 226.627 107.833 226.653C103.349 226.876 100.188 227.436 97.4529 228.554C95.4247 229.383 95.3739 231.492 95.3383 232.153C95.2773 233.266 93.7727 236.601 93.7727 236.601L79.6163 233.688L77.1104 224.264L91.831 222.744Z" fill="#262523"/>
<path d="M83.5658 225.255C89.7307 225.255 94.7283 220.048 94.7283 213.624C94.7283 207.2 89.7307 201.993 83.5658 201.993C77.4009 201.993 72.4033 207.2 72.4033 213.624C72.4033 220.048 77.4009 225.255 83.5658 225.255Z" fill="#666666"/>
<path d="M88.4201 241.085C88.4201 241.085 81.5528 253.214 80.521 260.382C80.1906 262.69 81.873 264.809 84.1909 265.084C86.2445 265.323 89.4214 265.44 94.2046 265.059C93.5133 262.898 95.0891 243.693 95.7651 235.93C95.8566 234.888 94.5706 234.329 93.8641 235.102L88.4201 241.085Z" fill="white"/>
<path d="M111.864 235.305C113.333 238.365 118.878 250.042 120.063 254.729C120.21 255.308 119.753 255.857 119.158 255.822C113.734 255.461 108.499 256.254 106.267 256.66C105.698 256.762 105.19 256.3 105.235 255.725L106.75 237.023C106.775 236.693 106.989 236.403 107.294 236.281L110.735 234.878C111.167 234.7 111.66 234.888 111.864 235.305Z" fill="white"/>
<path d="M118.786 250.952C116.275 244.384 111.502 234.563 111.502 234.563L110.379 235.02L115.706 255.73C117.185 255.715 118.73 255.807 120.276 255.954C120.205 254.968 119.62 253.143 118.786 250.952Z" fill="#666666"/>
<path d="M120.281 255.954C120.276 255.868 116.179 252.543 116.179 252.543C115.478 252.009 114.532 251.938 113.765 252.36L105.759 256.747C107.69 256.376 113.983 255.344 120.281 255.954Z" fill="#262523"/>
<path d="M79.7794 217.04C79.5913 219.068 80.0437 220.975 80.9434 222.576C81.5483 223.648 82.6869 224.34 83.9221 224.34C83.9272 224.34 83.9373 224.34 83.9424 224.34C89.5033 224.34 94.012 219.643 94.012 213.848C94.012 213.837 94.012 213.822 94.012 213.812C94.0018 211.367 92.2533 209.288 89.9405 208.901C89.2339 208.784 88.4969 208.754 87.7395 208.82C83.5612 209.201 80.1809 212.694 79.7794 217.04Z" fill="black"/>
<path d="M115.792 236.789L113.393 237.069C113.2 237.089 113.103 236.845 113.256 236.728L115.269 235.208C116.057 234.613 115.584 233.363 114.603 233.439C112.422 233.607 109.611 233.841 107.603 234.054C107.273 234.09 107.126 233.642 107.415 233.475C108.315 232.961 108.788 232.712 109.723 232.189C111.06 231.436 109.743 230.379 108.213 230.435C105.352 230.547 102.5 232.27 100.329 232.27C96.4053 232.27 85.5427 231.741 85.5427 231.741C84.6837 231.711 83.8856 231.274 83.4028 230.562L74.5785 217.502C72.1081 214.239 67.4469 213.634 64.2294 216.16C61.1744 218.555 60.5187 222.921 62.74 226.109L75.6612 242.666C76.8557 244.196 78.6704 245.121 80.6121 245.187L108.747 244.76C112.102 244.765 114.46 241.725 114.76 240.144C115.624 239.56 116.24 238.919 116.682 238.34C117.195 237.658 116.646 236.687 115.792 236.789Z" fill="#666666"/>
<path d="M81.1724 116.494C81.1724 116.494 83.5614 125.471 89.5849 137.641C98.1245 154.889 102.293 161.798 106.684 169.205C112.032 178.223 128.359 187.368 159.859 167.852C192.497 147.635 187.521 134.317 185.355 129.681C184.074 126.935 173.68 107.506 165.054 92.7593C161.689 87.0048 158.512 82.0891 156.397 78.917C154.638 76.2786 151.812 74.5655 148.661 74.2097C140.07 73.2387 121.873 73.3353 103.162 86.8929C77.3651 105.59 81.1724 116.494 81.1724 116.494Z" fill="white"/>
<path d="M186.666 139.553C187.525 135.216 185.655 130.784 182.01 128.272C172.769 121.898 154.668 121.623 131.718 136.121C106.501 152.053 105.916 165.534 109.668 173.002C117.018 180.256 132.867 184.572 159.853 167.852C179.194 155.876 185.324 146.319 186.666 139.553Z" fill="#F2BDBA"/>
<path d="M114.39 172.509C111.253 168.02 111.192 153.959 134.732 138.815C158.46 123.55 179.275 127.891 182.335 136.121C185.395 144.351 168.347 159.424 149.356 169.072C132.175 177.806 117.866 177.485 114.39 172.509Z" fill="black"/>
<path d="M94.0065 261.795C91.9377 261.79 89.7571 261.902 87.5764 262.075C82.6662 262.466 82.0054 264.012 82.4679 264.484C82.9 264.927 83.5557 265.165 84.1911 265.237C86.2446 265.476 90.4839 265.613 94.9977 265.084C94.0065 263.991 94.0116 263.462 94.0065 261.795Z" fill="black"/>
<path d="M128.536 231.528C127.066 229.713 126.228 229.937 123.544 229.896C124.683 233.831 126.665 242.122 128.647 249.681C130.63 257.235 130.64 261.078 130.64 261.078C133.131 260.748 135.138 260.377 140.013 259.558C143.993 258.887 144.349 255.593 142.29 252.543L128.536 231.528Z" fill="white"/>
<path d="M128.693 262.603C128.978 261.881 128.51 261.159 127.316 260.57C124.942 259.39 120.296 258.465 111.243 258.974C102.897 259.441 98.6624 261.505 96.5326 263.325C95.394 264.301 95.4702 265.053 96.4767 265.663C109.022 268.708 121.999 267.01 128.693 262.603Z" fill="#F2BDBA"/>
<path d="M140.532 259.65C141.538 259.39 141.696 258.313 141.172 257.937C140.949 257.779 140.684 257.616 140.369 257.454C137.894 256.183 133.939 256.198 130.157 256.65C130.635 259.589 130.721 260.295 130.183 261.292C133.263 261.078 140.232 259.726 140.532 259.65Z" fill="black"/>
<path d="M111.233 113.52C109.753 109.799 109.708 105.651 111.451 102.931C111.858 102.296 112.605 101.259 112.229 100.608L108.955 95.8602C108.264 94.6605 106.46 95.4129 105.631 96.5261C101.549 102.032 100.024 109.204 103.074 116.86C107.552 128.12 115.868 131.414 124.438 129.32C125.826 128.979 126.502 127.408 125.785 126.173L123.285 122.03C122.736 121.079 121.683 120.556 120.585 120.642C116.885 120.942 113.225 118.522 111.233 113.52ZM135.647 100.237C129.166 89.9735 118.867 88.4078 112.122 90.9699C110.943 91.4172 110.409 92.7847 111.039 93.8776L114.72 98.8645C115.157 99.6169 116.021 99.9829 116.87 99.8202C120.469 99.1238 124.891 100.517 127.803 104.919C130.116 108.416 130.111 113.891 126.441 117.409C125.638 118.182 125.719 119.509 126.279 120.474L128.627 124.526C129.557 126.127 131.636 126.28 133.054 125.095C139.703 119.544 140.191 107.435 135.647 100.237Z" fill="#615EDF"/>
<path d="M280.836 99.5202C280.485 99.5202 280.129 99.4287 279.804 99.2406C277.313 97.7918 272.82 94.9604 270.71 92.3322C270.116 91.59 270.131 90.5072 270.756 89.7549L277.359 81.7942C278.055 80.9503 279.291 80.8029 280.17 81.4536C282.244 82.9938 286.021 85.8406 288.028 87.6198C288.837 88.3366 288.964 89.5261 288.323 90.3903C286.015 93.5116 283.713 96.887 282.549 98.6154C282.147 99.2 281.497 99.5202 280.836 99.5202ZM278.94 82.0636C278.64 82.0636 278.34 82.1907 278.137 82.4397L271.534 90.4005C271.219 90.7817 271.203 91.3206 271.503 91.6917C273.587 94.2893 278.36 97.2225 280.317 98.3612C280.79 98.6357 281.395 98.4984 281.7 98.046C282.874 96.3075 285.182 92.9219 287.5 89.7803C287.82 89.3431 287.759 88.7382 287.347 88.3773C285.37 86.6235 281.619 83.797 279.555 82.2669C279.372 82.1297 279.153 82.0636 278.94 82.0636Z" fill="black"/>
<path d="M376.911 280.492C376.784 280.492 376.657 280.487 376.525 280.471C375.468 280.37 374.517 279.856 373.851 279.033L362.897 265.434C361.596 263.818 361.784 261.464 363.319 260.071L375.427 249.127C376.225 248.405 377.252 248.049 378.319 248.125C379.392 248.202 380.358 248.695 381.049 249.513L392.638 263.325C394.026 264.977 393.807 267.448 392.161 268.835L379.422 279.561C378.711 280.171 377.831 280.492 376.911 280.492ZM364.005 260.829C362.867 261.861 362.729 263.599 363.69 264.799L374.644 278.397C375.137 279.007 375.839 279.389 376.622 279.465C377.404 279.541 378.167 279.302 378.767 278.799L391.505 268.073C392.725 267.046 392.882 265.216 391.861 263.991L380.271 250.179C379.763 249.569 379.041 249.203 378.248 249.152C377.455 249.101 376.693 249.361 376.108 249.894L364.005 260.829Z" fill="black"/>
<path d="M317.072 256.645L316.279 256.01L321.988 248.847C322.323 248.425 322.206 247.983 321.982 247.709C321.759 247.434 321.347 247.231 320.864 247.475L314.414 250.794C313.57 251.226 312.614 251.018 312.025 250.281C311.435 249.544 311.455 248.563 312.065 247.841L317.804 241.065C318.16 240.643 318.043 240.19 317.819 239.911C317.591 239.631 317.179 239.418 316.691 239.677L300.064 248.141L299.602 247.236L316.223 238.772C317.057 238.33 318.023 238.533 318.612 239.27C319.207 240.012 319.192 240.993 318.582 241.72L312.843 248.497C312.487 248.913 312.599 249.366 312.823 249.646C313.046 249.925 313.458 250.139 313.946 249.89L320.391 246.57C321.22 246.143 322.171 246.341 322.76 247.058C323.35 247.775 323.355 248.751 322.775 249.478L317.072 256.645Z" fill="black"/>
<path d="M344.746 267.186L337.326 287.195L338.279 287.548L345.699 267.539L344.746 267.186Z" fill="black"/>
<path d="M356.386 271.533L355.427 271.87L363.985 296.187L364.943 295.849L356.386 271.533Z" fill="black"/>
<path d="M356.033 288.367L355.027 288.515L356.793 300.469L357.798 300.321L356.033 288.367Z" fill="black"/>
<path d="M344.594 283.758L342.766 293.335L343.764 293.526L345.592 283.948L344.594 283.758Z" fill="black"/>
<path d="M263.232 91.7592L262.339 92.2442L271.562 109.24L272.456 108.755L263.232 91.7592Z" fill="black"/>
<path d="M263.29 100.791L262.312 101.072L265.161 110.98L266.138 110.699L263.29 100.791Z" fill="black"/>
<path d="M258.693 93.3704L257.812 108.26L258.826 108.32L259.708 93.4305L258.693 93.3704Z" fill="black"/>
<path d="M231.824 99.1439L230.843 98.8795L233.455 89.1091C233.618 88.494 234.172 88.1128 234.808 88.1788C235.438 88.2449 235.9 88.738 235.936 89.3684L236.226 95.2194C236.236 95.3821 236.348 95.4329 236.419 95.4482C236.49 95.4634 236.612 95.4685 236.688 95.3211L240.46 87.8789L241.365 88.3364L237.598 95.7786C237.334 96.2971 236.78 96.5615 236.211 96.4395C235.641 96.3175 235.245 95.8498 235.214 95.2703L234.925 89.4192C234.914 89.2362 234.782 89.1955 234.706 89.1904C234.63 89.1803 234.492 89.1955 234.447 89.3684L231.824 99.1439Z" fill="black"/>
<path d="M336.328 47.9828L336.168 48.9867L351.046 51.3583L351.206 50.3544L336.328 47.9828Z" fill="black"/>
<path d="M337.35 52.5368L336.98 53.4838L350.948 58.9395L351.318 57.9924L337.35 52.5368Z" fill="black"/>
<path d="M337.547 56.463L336.776 57.1262L346.654 68.6051L347.424 67.9419L337.547 56.463Z" fill="black"/>
<path d="M322.41 329.014L322.354 329.009L293.289 325.684L293.406 324.672L322.44 327.992C323.142 327.982 323.523 327.499 323.65 327.052C323.777 326.599 323.691 325.979 323.071 325.613L289.624 309.824C288.582 309.203 288.19 308.039 288.628 306.962C289.065 305.884 290.163 305.32 291.291 305.594L317.82 311.496C318.582 311.679 319.085 311.232 319.289 310.789C319.487 310.357 319.507 309.702 318.918 309.244L296.694 298.259L297.147 297.349L319.487 308.4C320.534 309.168 320.605 310.368 320.214 311.216C319.823 312.065 318.862 312.787 317.596 312.487L291.067 306.585C290.269 306.392 289.766 306.875 289.573 307.348C289.38 307.816 289.405 308.512 290.102 308.929L323.548 324.718C324.504 325.288 324.911 326.299 324.631 327.326C324.341 328.353 323.472 329.014 322.41 329.014Z" fill="black"/>
<path d="M72.0882 233.094C71.9814 233.094 71.8747 233.089 71.7679 233.073C71.1325 232.982 70.5683 232.621 70.2176 232.082L67.5541 228C66.8882 226.983 67.1677 225.601 68.1793 224.925L71.7323 222.54C72.749 221.859 74.1316 222.129 74.8178 223.135L77.2831 226.744C77.9286 227.69 77.7558 228.961 76.8866 229.703L73.5369 232.56C73.1302 232.911 72.6168 233.094 72.0882 233.094ZM72.9777 223.186C72.7439 223.186 72.5101 223.252 72.3017 223.389L68.7486 225.773C68.1996 226.145 68.0471 226.892 68.408 227.451L71.0715 231.533C71.2647 231.828 71.5697 232.021 71.9154 232.072C72.2661 232.123 72.6117 232.021 72.876 231.792L76.2258 228.935C76.6985 228.529 76.7951 227.837 76.4393 227.324L73.974 223.715C73.7503 223.369 73.364 223.186 72.9777 223.186Z" fill="black"/>
<path d="M81.7242 233.48L76.1592 239.313L76.8947 240.015L82.4597 234.182L81.7242 233.48Z" fill="black"/>
<path d="M80.0293 238.826L78.5459 241.825L79.4571 242.275L80.9405 239.277L80.0293 238.826Z" fill="black"/>
<path d="M84.0961 233.371L82.0215 243.272L83.0164 243.48L85.0911 233.58L84.0961 233.371Z" fill="black"/>
<path d="M95.6684 241.365C95.643 241.365 95.6226 241.365 95.5972 241.365C94.9212 241.334 94.3468 240.902 94.1333 240.261L93.2285 237.526L94.1943 237.206L95.0991 239.941C95.2211 240.302 95.5413 240.348 95.6379 240.348C95.7345 240.348 96.0598 240.338 96.2123 239.987L97.0917 237.928C97.3051 237.43 97.7474 237.074 98.2811 236.977C98.8148 236.881 99.3536 237.049 99.7298 237.435L102.388 240.16C102.622 240.399 102.907 240.373 103.1 240.266C103.293 240.16 103.471 239.931 103.395 239.606L102.16 234.319L103.151 234.09L104.386 239.377C104.554 240.089 104.233 240.805 103.593 241.156C102.947 241.507 102.175 241.39 101.661 240.866L99.0029 238.142C98.8606 237.994 98.6623 237.933 98.4692 237.974C98.2709 238.009 98.1083 238.142 98.032 238.325L97.1526 240.383C96.8934 240.988 96.319 241.365 95.6684 241.365Z" fill="black"/>
<path d="M30.1417 200.608L22.8623 203.106L23.1923 204.068L30.4717 201.57L30.1417 200.608Z" fill="black"/>
<path d="M28.1275 203.849L24.2139 207.109L24.8645 207.89L28.7781 204.63L28.1275 203.849Z" fill="black"/>
<path d="M31.0287 204.046L27.9863 211.874L28.9339 212.242L31.9763 204.414L31.0287 204.046Z" fill="black"/>
<path d="M3.76097 181.237C3.64914 181.237 3.53224 181.227 3.42041 181.202L2.54102 181.008L2.75958 180.017L3.63898 180.21C3.80164 180.246 3.96937 180.21 4.10153 180.119C4.23877 180.022 4.32521 179.88 4.34554 179.712L4.43703 179C4.49803 178.548 4.74709 178.141 5.12323 177.882C5.49938 177.623 5.9721 177.541 6.41433 177.648L8.16291 178.08C8.35099 178.126 8.54416 178.08 8.68649 177.953C8.8339 177.826 8.90507 177.643 8.88982 177.45L8.80339 176.474C8.75764 175.955 8.95588 175.457 9.34728 175.117C9.73868 174.776 10.2571 174.644 10.7655 174.766L11.9091 175.035C12.0972 175.081 12.2853 175.03 12.4327 174.903C12.575 174.776 12.6513 174.593 12.631 174.4C12.5751 173.841 12.8089 173.307 13.2562 172.966C13.7035 172.626 14.283 172.544 14.8065 172.748L16.118 173.251L15.752 174.202L14.4405 173.698C14.2474 173.622 14.039 173.653 13.8712 173.78C13.7035 173.907 13.6222 174.1 13.6425 174.308C13.6933 174.832 13.4951 175.325 13.1037 175.671C12.7123 176.016 12.1887 176.149 11.6804 176.027L10.5367 175.757C10.3487 175.717 10.1606 175.762 10.0132 175.884C9.87084 176.011 9.79459 176.189 9.81492 176.382L9.90135 177.358C9.9471 177.877 9.74376 178.385 9.34728 178.721C8.9508 179.056 8.41707 179.189 7.91385 179.061L6.16526 178.629C6.0026 178.589 5.83486 178.619 5.69254 178.716C5.55021 178.812 5.4638 178.955 5.43838 179.128L5.34689 179.839C5.28589 180.281 5.04699 180.683 4.67592 180.942C4.4116 181.135 4.09137 181.237 3.76097 181.237Z" fill="black"/>
<path d="M335.6 15.465C335.585 15.465 335.575 15.465 335.56 15.465C335.041 15.4497 334.594 15.1447 334.39 14.6719L333.567 12.7606C333.496 12.5979 333.354 12.5775 333.293 12.5775C333.293 12.5775 333.293 12.5775 333.287 12.5775C333.226 12.5775 333.079 12.5979 333.013 12.7656L332.093 15.0634L331.147 14.6872L332.067 12.3895C332.266 11.8913 332.738 11.571 333.272 11.5609C333.277 11.5609 333.282 11.5609 333.287 11.5609C333.816 11.5609 334.289 11.8709 334.497 12.3539L335.321 14.2653C335.387 14.4228 335.529 14.4432 335.59 14.4483C335.646 14.4483 335.788 14.4381 335.865 14.2805L336.459 13.091C336.658 12.6945 337.039 12.425 337.476 12.3742C337.918 12.3183 338.35 12.486 338.635 12.8266L339.616 13.9704C339.723 14.0924 339.855 14.0772 339.906 14.067C339.956 14.0568 340.084 14.0162 340.129 13.8586L340.724 11.8709C340.856 11.4338 341.197 11.0983 341.644 10.9763C342.086 10.8543 342.554 10.9712 342.884 11.2863L344.806 13.0859C344.918 13.1926 345.05 13.1723 345.101 13.152C345.151 13.1367 345.268 13.0859 345.304 12.9334L345.68 11.3067C345.787 10.8542 346.107 10.4984 346.549 10.351C346.991 10.2036 347.464 10.3001 347.815 10.6001L349.192 11.7744C349.314 11.876 349.441 11.8455 349.492 11.8252C349.543 11.8049 349.66 11.7489 349.685 11.5914L349.945 9.97989C350.021 9.50204 350.356 9.10553 350.814 8.94795C351.276 8.79036 351.78 8.89711 352.136 9.22754C352.268 9.34954 352.405 9.30379 352.461 9.28346C352.517 9.25804 352.639 9.18687 352.639 9.00895V7.84991H353.655V9.00895C353.655 9.54271 353.355 10.0002 352.867 10.2137C352.38 10.4272 351.836 10.3357 351.444 9.97481C351.327 9.86297 351.195 9.89347 351.144 9.9138C351.093 9.92905 350.971 9.99006 350.946 10.1476L350.687 11.7591C350.611 12.2319 350.295 12.6182 349.843 12.786C349.391 12.9537 348.903 12.8673 348.537 12.5521L347.159 11.3778C347.042 11.2813 346.92 11.3067 346.869 11.3219C346.824 11.3372 346.707 11.3931 346.671 11.5405L346.295 13.1672C346.188 13.6298 345.853 13.9907 345.395 14.1331C344.938 14.2703 344.46 14.1585 344.109 13.8332L342.188 12.0336C342.076 11.9319 341.954 11.9523 341.903 11.9624C341.852 11.9777 341.736 12.0234 341.695 12.1658L341.1 14.1534C340.963 14.616 340.582 14.9617 340.114 15.0634C339.641 15.165 339.153 14.9973 338.843 14.6313L337.862 13.4875C337.766 13.3757 337.649 13.3807 337.598 13.3858C337.552 13.3909 337.43 13.4214 337.364 13.5485L336.769 14.738C336.551 15.1854 336.103 15.465 335.6 15.465Z" fill="black"/>
<path d="M334.113 7.7369L333.601 8.61512L338.452 11.4451L338.965 10.5669L334.113 7.7369Z" fill="black"/>
<path d="M338.68 5.86685L338.187 6.75564L344.492 10.2585L344.986 9.3697L338.68 5.86685Z" fill="black"/>
<path d="M344.445 5.24209L344.01 6.16067L349.199 8.62269L349.635 7.70411L344.445 5.24209Z" fill="black"/>
<path d="M291.972 401.636L291.037 401.24L292.593 397.58C292.969 396.695 293.711 396.04 294.636 395.775C295.561 395.511 296.537 395.679 297.325 396.233L298.941 397.371C299.506 397.768 300.202 397.875 300.858 397.651C301.513 397.432 302.006 396.929 302.22 396.273L302.5 395.404C302.815 394.413 303.603 393.645 304.594 393.345C305.585 393.045 306.668 393.254 307.476 393.899L309.118 395.206C309.682 395.653 310.399 395.79 311.085 395.577C311.771 395.369 312.29 394.85 312.503 394.164L312.925 392.806C313.235 391.81 313.982 391.053 314.978 390.738C315.975 390.417 317.022 390.6 317.856 391.231L319.741 392.659C320.311 393.091 321.027 393.213 321.708 392.989C322.39 392.766 322.893 392.242 323.096 391.556L323.803 389.151C324.113 388.099 324.926 387.296 325.983 386.996C327.036 386.701 328.154 386.966 328.967 387.703L330.482 389.08C331.046 389.594 331.824 389.772 332.556 389.543C333.288 389.319 333.832 388.74 334.015 387.998C334.284 386.889 335.097 386.03 336.195 385.71C337.288 385.39 338.437 385.664 339.265 386.452L341.624 388.694L340.923 389.431L338.564 387.189C338 386.655 337.222 386.467 336.48 386.686C335.738 386.905 335.184 387.484 335.001 388.242C334.736 389.34 333.933 390.188 332.856 390.519C331.778 390.849 330.634 390.595 329.801 389.833L328.286 388.455C327.737 387.952 326.98 387.774 326.263 387.977C325.546 388.181 324.992 388.724 324.784 389.436L324.077 391.841C323.782 392.837 323.02 393.625 322.034 393.95C321.043 394.276 319.96 394.093 319.131 393.467L317.246 392.039C316.681 391.612 315.97 391.49 315.294 391.703C314.618 391.917 314.109 392.43 313.901 393.106L313.479 394.464C313.169 395.46 312.386 396.238 311.39 396.548C310.394 396.853 309.311 396.65 308.492 395.999L306.851 394.692C306.291 394.245 305.58 394.108 304.894 394.316C304.207 394.525 303.689 395.033 303.47 395.714L303.191 396.583C302.881 397.554 302.149 398.292 301.183 398.617C300.217 398.942 299.19 398.79 298.357 398.2L296.74 397.061C296.207 396.685 295.546 396.573 294.916 396.751C294.29 396.929 293.782 397.377 293.528 397.976L291.972 401.636Z" fill="black"/>
<path d="M258.755 376.447H257.738V371.572C257.738 370.901 257.393 370.302 256.818 369.961C256.244 369.62 255.547 369.61 254.963 369.93L252.813 371.115C251.908 371.613 250.835 371.598 249.951 371.069C249.061 370.546 248.533 369.615 248.533 368.583V366.906C248.533 366.27 248.228 365.701 247.699 365.345C247.17 364.989 246.525 364.928 245.94 365.177L243.18 366.331C242.286 366.708 241.269 366.611 240.466 366.072C239.658 365.533 239.175 364.633 239.175 363.668V363.114C239.175 362.478 238.875 361.914 238.346 361.558C237.818 361.202 237.177 361.136 236.592 361.38L233.949 362.463C233.055 362.829 232.043 362.727 231.245 362.188C230.442 361.649 229.964 360.755 229.964 359.789C229.964 359.148 229.659 358.579 229.125 358.228C228.592 357.872 227.946 357.817 227.362 358.066L225.308 358.935C224.515 359.27 223.626 359.235 222.863 358.843C222.101 358.452 221.552 357.75 221.364 356.912L221.099 355.753C220.972 355.204 220.616 354.746 220.118 354.497C219.615 354.243 219.036 354.228 218.522 354.456L214.872 356.058L214.466 355.127L218.115 353.526C218.908 353.18 219.808 353.201 220.581 353.592C221.353 353.984 221.907 354.69 222.101 355.534L222.365 356.693C222.487 357.237 222.843 357.689 223.336 357.944C223.829 358.198 224.408 358.218 224.922 358.005L226.975 357.135C227.87 356.754 228.887 356.851 229.7 357.39C230.508 357.928 230.991 358.828 230.991 359.799C230.991 360.435 231.291 360.999 231.819 361.355C232.348 361.71 232.983 361.771 233.573 361.533L236.216 360.45C237.111 360.084 238.123 360.185 238.921 360.724C239.724 361.263 240.202 362.158 240.202 363.124V363.678C240.202 364.313 240.506 364.883 241.035 365.238C241.564 365.594 242.209 365.655 242.794 365.406L245.554 364.252C246.449 363.881 247.465 363.978 248.268 364.511C249.077 365.05 249.554 365.95 249.554 366.916V368.593C249.554 369.264 249.9 369.864 250.474 370.205C251.049 370.546 251.745 370.556 252.33 370.235L254.48 369.051C255.385 368.553 256.457 368.568 257.342 369.097C258.231 369.62 258.76 370.551 258.76 371.583V376.447H258.755Z" fill="black"/>
<path d="M373.058 220.598C368.361 228.224 355.857 232.219 349.767 224.025C343.001 214.915 347.825 195.542 361.905 194.729C365.118 194.541 368.32 195.593 370.852 197.687C377.277 203.01 378.324 212.048 373.058 220.598Z" fill="black"/>
<path d="M357.001 210.503C355.273 215.845 353.291 221.752 350.805 218.723C349.26 216.837 348.319 212.302 349.422 207.991C350.291 204.596 352.721 201.337 355.136 199.629C356.386 198.745 357.652 198.541 358.663 199.08C361.246 200.448 358.938 204.509 357.001 210.503Z" fill="#74BAAB"/>
<path d="M259.385 62.1109C256.777 64.9017 253.844 67.9569 252.639 64.7746C251.892 62.7971 252.243 59.315 254.124 56.9308C255.603 55.0499 258.256 53.9824 260.528 53.9468C261.708 53.9316 262.729 54.3789 263.39 55.2075C265.057 57.3172 262.307 58.9794 259.385 62.1109Z" fill="#74BAAB"/>
<path d="M89.0149 215.363C89.0505 213.538 89.1217 211.514 90.5195 212.257C91.3887 212.719 93.061 216.384 91.1447 218.626C90.7838 219.048 90.2501 219.18 89.7672 219.094C88.5422 218.88 88.9742 217.406 89.0149 215.363Z" fill="#74BAAB"/>
<path d="M125.587 262.786C125.806 262.314 125.415 261.851 124.439 261.49C122.492 260.773 118.705 260.26 111.36 260.768C104.589 261.236 101.189 262.664 99.4857 263.889C98.5758 264.545 98.647 265.038 99.4806 265.409C109.718 267.148 120.225 265.786 125.587 262.786Z" fill="black"/>
<path d="M303.527 219.251C302.678 215.464 300.345 203.828 300.319 203.711L301.316 203.513C301.341 203.63 303.669 215.251 304.518 219.028L303.527 219.251Z" fill="black"/>
<path d="M313.83 220.487C312.783 218.967 311.868 216.943 311.319 214.941C311.126 214.239 310.948 213.558 310.78 212.902C309.921 209.613 309.245 207.01 307.604 205.511L308.29 204.758C310.155 206.461 310.867 209.191 311.767 212.643C311.934 213.294 312.112 213.97 312.305 214.666C312.829 216.567 313.688 218.479 314.674 219.907L313.83 220.487Z" fill="black"/>
<path d="M318.653 220.72L317.637 220.69C317.662 219.892 317.586 218.849 317.51 217.746C317.433 216.613 317.342 215.332 317.342 214.091C317.342 211.829 317.901 209.623 318.836 208.179L319.69 208.733C318.857 210.02 318.358 212.017 318.358 214.091C318.358 215.291 318.44 216.506 318.521 217.675C318.602 218.804 318.679 219.871 318.653 220.72Z" fill="black"/>
<path d="M351.587 261.154C350.509 261.154 349.447 260.702 348.7 259.832L340.236 249.94L341.009 249.279L349.472 259.172C350.453 260.32 352.197 260.473 353.361 259.507L378.573 236.545C379.956 235.361 381.511 234.369 383.204 233.597L383.626 234.522C382.019 235.254 380.545 236.194 379.244 237.308L354.027 260.275C353.315 260.864 352.446 261.154 351.587 261.154Z" fill="black"/>
<path d="M353.264 305.376C348.918 305.376 344.338 303.5 340.384 298.487L330.645 287.705L331.397 287.024L341.161 297.832C348.308 306.885 357.585 305.091 363.354 300.816C367.97 297.394 374.395 291.925 382.451 284.554L383.138 285.306C375.056 292.697 368.6 298.193 363.959 301.634C361.021 303.805 357.239 305.376 353.264 305.376Z" fill="black"/>
<path d="M289.975 222.281C289.41 221.29 288.943 220.299 288.46 219.058L289.41 218.692C289.878 219.897 290.31 220.822 290.859 221.778L289.975 222.281Z" fill="black"/>
<path d="M295.963 220.502C295.139 218.962 293.594 215.769 292.496 211.713L293.477 211.448C294.545 215.408 296.054 218.519 296.857 220.019L295.963 220.502Z" fill="black"/>
<path d="M366.124 235.427C357.905 235.427 350.362 230.938 346.438 223.71L347.332 223.222C351.078 230.12 358.281 234.41 366.124 234.41V235.427Z" fill="black"/>
<path d="M228.323 82.4449C227.515 82.4449 226.523 82.0078 225.471 81.1639C224.312 80.2387 222.518 78.7899 221.049 77.6106L221.689 76.8175C223.158 78.002 224.948 79.4457 226.107 80.3709C227.189 81.2402 228.241 81.6265 228.724 81.3317C229.161 81.0673 229.263 80.1676 229.014 78.856C228.714 77.2903 228.79 76.0347 229.248 75.1146L230.158 75.567C229.914 76.0601 229.69 76.9955 230.01 78.6628C230.361 80.4929 230.107 81.6824 229.248 82.2009C228.978 82.3636 228.663 82.4449 228.323 82.4449Z" fill="black"/>
<path d="M265.52 87.996L264.793 87.2843L278.405 73.3454C283.184 68.45 290.93 68.1857 296.034 72.7405L295.358 73.4979C290.661 69.304 283.534 69.548 279.137 74.052L265.52 87.996Z" fill="black"/>
<path d="M295.85 90.546L282.038 104.425L282.759 105.143L296.57 91.2631L295.85 90.546Z" fill="black"/>
<path d="M77.263 222.383L74.1624 217.792C73.0695 216.349 71.448 215.408 69.6232 215.169C67.7983 214.935 65.9938 215.429 64.5452 216.562L63.9199 215.764C65.5872 214.458 67.656 213.888 69.7553 214.163C71.8546 214.437 73.71 215.515 74.9909 217.203L78.1068 221.813L77.263 222.383Z" fill="black"/>
<path d="M94.235 246.983L93.6328 258.822L94.6481 258.874L95.2503 247.034L94.235 246.983Z" fill="black"/>
<path d="M124.83 232.467L123.844 232.716L128.813 252.434L129.799 252.185L124.83 232.467Z" fill="black"/>
</svg>
