<svg width="346" height="312" viewBox="0 0 346 312" fill="none" xmlns="http://www.w3.org/2000/svg">
<g filter="url(#filter0_b_270_2867)">
<rect x="1" y="1" width="462" height="338" rx="24" fill="url(#paint0_linear_270_2867)" fill-opacity="0.4"/>
<rect x="1" y="1" width="462" height="338" rx="24" stroke="url(#paint1_linear_270_2867)" stroke-width="1.5"/>
</g>
<path d="M1 44L373 44" stroke="white" stroke-opacity="0.1"/>
<g filter="url(#filter1_d_270_2867)">
<circle cx="30.9524" cy="22.9524" r="5.95238" fill="white" fill-opacity="0.2" shape-rendering="crispEdges"/>
</g>
<g filter="url(#filter2_d_270_2867)">
<circle cx="49.9997" cy="22.9524" r="5.95238" fill="white" fill-opacity="0.2" shape-rendering="crispEdges"/>
</g>
<g filter="url(#filter3_d_270_2867)">
<circle cx="69.0476" cy="22.9524" r="5.95238" fill="white" fill-opacity="0.2" shape-rendering="crispEdges"/>
</g>
<g filter="url(#filter4_b_270_2867)">
<rect x="93" y="13" width="278" height="20" rx="10" fill="white" fill-opacity="0.2"/>
</g>
<path d="M103.43 28.7676C103.515 28.7676 103.654 28.7356 103.787 28.661C106.82 26.9605 107.859 26.2409 107.859 24.2953V20.2175C107.859 19.6578 107.619 19.4819 107.166 19.29C106.537 19.0288 104.506 18.2985 103.877 18.08C103.733 18.032 103.579 18 103.43 18C103.28 18 103.126 18.0426 102.987 18.08C102.358 18.2612 100.322 19.0341 99.693 19.29C99.2452 19.4765 99 19.6578 99 20.2175V24.2953C99 26.2409 100.045 26.9552 103.072 28.661C103.211 28.7356 103.344 28.7676 103.43 28.7676ZM103.643 18.9062C104.448 19.226 106.01 19.791 106.836 20.0736C106.98 20.1269 107.012 20.2015 107.012 20.3827V24.0981C107.012 25.7452 106.223 26.177 103.76 27.6748C103.606 27.7708 103.52 27.7974 103.435 27.8028V18.8582C103.488 18.8582 103.558 18.8742 103.643 18.9062Z" fill="white"/>
<path d="M197.422 25.9922L196.66 23.5C196.626 23.3932 196.594 23.2891 196.562 23.1875C196.534 23.0833 196.507 22.9844 196.48 22.8906C196.457 22.7943 196.435 22.7057 196.414 22.625C196.396 22.5417 196.38 22.4701 196.367 22.4102H196.34C196.329 22.4701 196.315 22.5417 196.297 22.625C196.279 22.7057 196.257 22.7943 196.23 22.8906C196.207 22.987 196.181 23.0885 196.152 23.1953C196.124 23.2995 196.091 23.4049 196.055 23.5117L195.258 25.9922H194.527L193.348 21.7109H194.02L194.637 24.0742C194.678 24.2305 194.717 24.3854 194.754 24.5391C194.793 24.6901 194.826 24.8333 194.852 24.9688C194.88 25.1016 194.901 25.2174 194.914 25.3164H194.945C194.961 25.2513 194.978 25.1732 194.996 25.082C195.017 24.9909 195.039 24.8945 195.062 24.793C195.089 24.6888 195.116 24.5859 195.145 24.4844C195.173 24.3802 195.202 24.2826 195.23 24.1914L196.02 21.7109H196.719L197.48 24.1875C197.52 24.3125 197.557 24.4427 197.594 24.5781C197.633 24.7135 197.668 24.8451 197.699 24.9727C197.73 25.0977 197.753 25.2096 197.766 25.3086H197.797C197.807 25.2201 197.827 25.1107 197.855 24.9805C197.884 24.8503 197.917 24.707 197.953 24.5508C197.992 24.3945 198.033 24.2357 198.074 24.0742L198.699 21.7109H199.359L198.176 25.9922H197.422ZM203.625 25.9922L202.863 23.5C202.829 23.3932 202.797 23.2891 202.766 23.1875C202.737 23.0833 202.71 22.9844 202.684 22.8906C202.66 22.7943 202.638 22.7057 202.617 22.625C202.599 22.5417 202.583 22.4701 202.57 22.4102H202.543C202.533 22.4701 202.518 22.5417 202.5 22.625C202.482 22.7057 202.46 22.7943 202.434 22.8906C202.41 22.987 202.384 23.0885 202.355 23.1953C202.327 23.2995 202.294 23.4049 202.258 23.5117L201.461 25.9922H200.73L199.551 21.7109H200.223L200.84 24.0742C200.882 24.2305 200.921 24.3854 200.957 24.5391C200.996 24.6901 201.029 24.8333 201.055 24.9688C201.083 25.1016 201.104 25.2174 201.117 25.3164H201.148C201.164 25.2513 201.181 25.1732 201.199 25.082C201.22 24.9909 201.242 24.8945 201.266 24.793C201.292 24.6888 201.319 24.5859 201.348 24.4844C201.376 24.3802 201.405 24.2826 201.434 24.1914L202.223 21.7109H202.922L203.684 24.1875C203.723 24.3125 203.76 24.4427 203.797 24.5781C203.836 24.7135 203.871 24.8451 203.902 24.9727C203.934 25.0977 203.956 25.2096 203.969 25.3086H204C204.01 25.2201 204.03 25.1107 204.059 24.9805C204.087 24.8503 204.12 24.707 204.156 24.5508C204.195 24.3945 204.236 24.2357 204.277 24.0742L204.902 21.7109H205.562L204.379 25.9922H203.625ZM209.828 25.9922L209.066 23.5C209.033 23.3932 209 23.2891 208.969 23.1875C208.94 23.0833 208.913 22.9844 208.887 22.8906C208.863 22.7943 208.841 22.7057 208.82 22.625C208.802 22.5417 208.786 22.4701 208.773 22.4102H208.746C208.736 22.4701 208.721 22.5417 208.703 22.625C208.685 22.7057 208.663 22.7943 208.637 22.8906C208.613 22.987 208.587 23.0885 208.559 23.1953C208.53 23.2995 208.497 23.4049 208.461 23.5117L207.664 25.9922H206.934L205.754 21.7109H206.426L207.043 24.0742C207.085 24.2305 207.124 24.3854 207.16 24.5391C207.199 24.6901 207.232 24.8333 207.258 24.9688C207.286 25.1016 207.307 25.2174 207.32 25.3164H207.352C207.367 25.2513 207.384 25.1732 207.402 25.082C207.423 24.9909 207.445 24.8945 207.469 24.793C207.495 24.6888 207.522 24.5859 207.551 24.4844C207.579 24.3802 207.608 24.2826 207.637 24.1914L208.426 21.7109H209.125L209.887 24.1875C209.926 24.3125 209.964 24.4427 210 24.5781C210.039 24.7135 210.074 24.8451 210.105 24.9727C210.137 25.0977 210.159 25.2096 210.172 25.3086H210.203C210.214 25.2201 210.233 25.1107 210.262 24.9805C210.29 24.8503 210.323 24.707 210.359 24.5508C210.398 24.3945 210.439 24.2357 210.48 24.0742L211.105 21.7109H211.766L210.582 25.9922H209.828ZM212.449 25.5938C212.449 25.4115 212.493 25.2826 212.582 25.207C212.671 25.1289 212.779 25.0898 212.906 25.0898C213.039 25.0898 213.151 25.1289 213.242 25.207C213.333 25.2826 213.379 25.4115 213.379 25.5938C213.379 25.7734 213.333 25.9049 213.242 25.9883C213.151 26.069 213.039 26.1094 212.906 26.1094C212.779 26.1094 212.671 26.069 212.582 25.9883C212.493 25.9049 212.449 25.7734 212.449 25.5938ZM214.746 26V20.2891H215.41V25.4062H217.945V26H214.746ZM220.43 21.6484C220.94 21.6484 221.319 21.763 221.566 21.9922C221.814 22.2214 221.938 22.5872 221.938 23.0898V26H221.465L221.34 25.3672H221.309C221.189 25.5234 221.064 25.6549 220.934 25.7617C220.803 25.8659 220.652 25.9453 220.48 26C220.311 26.0521 220.103 26.0781 219.855 26.0781C219.595 26.0781 219.363 26.0326 219.16 25.9414C218.96 25.8503 218.801 25.7122 218.684 25.5273C218.569 25.3424 218.512 25.1081 218.512 24.8242C218.512 24.3971 218.681 24.069 219.02 23.8398C219.358 23.6107 219.874 23.4857 220.566 23.4648L221.305 23.4336V23.1719C221.305 22.8021 221.225 22.543 221.066 22.3945C220.908 22.2461 220.684 22.1719 220.395 22.1719C220.171 22.1719 219.957 22.2044 219.754 22.2695C219.551 22.3346 219.358 22.4115 219.176 22.5L218.977 22.0078C219.169 21.9089 219.391 21.8242 219.641 21.7539C219.891 21.6836 220.154 21.6484 220.43 21.6484ZM221.297 23.8906L220.645 23.918C220.111 23.9388 219.734 24.026 219.516 24.1797C219.297 24.3333 219.188 24.5508 219.188 24.832C219.188 25.0768 219.262 25.2578 219.41 25.375C219.559 25.4922 219.755 25.5508 220 25.5508C220.38 25.5508 220.691 25.4453 220.934 25.2344C221.176 25.0234 221.297 24.707 221.297 24.2852V23.8906ZM225.285 21.6406C225.819 21.6406 226.245 21.8242 226.562 22.1914C226.88 22.5586 227.039 23.1107 227.039 23.8477C227.039 24.3346 226.966 24.7435 226.82 25.0742C226.674 25.4049 226.469 25.6549 226.203 25.8242C225.94 25.9935 225.629 26.0781 225.27 26.0781C225.043 26.0781 224.844 26.0482 224.672 25.9883C224.5 25.9284 224.353 25.8477 224.23 25.7461C224.108 25.6445 224.007 25.5339 223.926 25.4141H223.879C223.887 25.5156 223.896 25.638 223.906 25.7812C223.919 25.9245 223.926 26.0495 223.926 26.1562V27.9141H223.273V21.7188H223.809L223.895 22.3516H223.926C224.009 22.2214 224.111 22.1029 224.23 21.9961C224.35 21.8867 224.496 21.8008 224.668 21.7383C224.842 21.6732 225.048 21.6406 225.285 21.6406ZM225.172 22.1875C224.875 22.1875 224.635 22.2448 224.453 22.3594C224.273 22.474 224.142 22.6458 224.059 22.875C223.975 23.1016 223.931 23.3867 223.926 23.7305V23.8555C223.926 24.2174 223.965 24.5234 224.043 24.7734C224.124 25.0234 224.255 25.2135 224.438 25.3438C224.622 25.474 224.87 25.5391 225.18 25.5391C225.445 25.5391 225.667 25.4674 225.844 25.3242C226.021 25.181 226.152 24.9818 226.238 24.7266C226.327 24.4688 226.371 24.1732 226.371 23.8398C226.371 23.3346 226.272 22.9336 226.074 22.6367C225.879 22.3372 225.578 22.1875 225.172 22.1875ZM230.117 21.6406C230.203 21.6406 230.293 21.6458 230.387 21.6562C230.48 21.6641 230.564 21.6758 230.637 21.6914L230.555 22.293C230.484 22.2747 230.406 22.2604 230.32 22.25C230.234 22.2396 230.154 22.2344 230.078 22.2344C229.906 22.2344 229.743 22.2695 229.59 22.3398C229.439 22.4076 229.306 22.5065 229.191 22.6367C229.077 22.7643 228.987 22.9193 228.922 23.1016C228.857 23.2812 228.824 23.4818 228.824 23.7031V26H228.172V21.7188H228.711L228.781 22.5078H228.809C228.897 22.349 229.004 22.2044 229.129 22.0742C229.254 21.9414 229.398 21.8359 229.562 21.7578C229.729 21.6797 229.914 21.6406 230.117 21.6406ZM235.137 23.8516C235.137 24.2031 235.091 24.5169 235 24.793C234.909 25.069 234.777 25.3021 234.605 25.4922C234.434 25.6823 234.225 25.8281 233.98 25.9297C233.738 26.0286 233.464 26.0781 233.156 26.0781C232.87 26.0781 232.607 26.0286 232.367 25.9297C232.13 25.8281 231.924 25.6823 231.75 25.4922C231.578 25.3021 231.444 25.069 231.348 24.793C231.254 24.5169 231.207 24.2031 231.207 23.8516C231.207 23.3828 231.286 22.9844 231.445 22.6562C231.604 22.3255 231.831 22.0742 232.125 21.9023C232.422 21.7279 232.775 21.6406 233.184 21.6406C233.574 21.6406 233.915 21.7279 234.207 21.9023C234.501 22.0768 234.729 22.3294 234.891 22.6602C235.055 22.9883 235.137 23.3854 235.137 23.8516ZM231.879 23.8516C231.879 24.1953 231.924 24.4935 232.016 24.7461C232.107 24.9987 232.247 25.194 232.438 25.332C232.628 25.4701 232.872 25.5391 233.172 25.5391C233.469 25.5391 233.712 25.4701 233.902 25.332C234.095 25.194 234.237 24.9987 234.328 24.7461C234.419 24.4935 234.465 24.1953 234.465 23.8516C234.465 23.5104 234.419 23.2161 234.328 22.9688C234.237 22.7188 234.096 22.526 233.906 22.3906C233.716 22.2552 233.47 22.1875 233.168 22.1875C232.723 22.1875 232.396 22.3346 232.188 22.6289C231.982 22.9232 231.879 23.3307 231.879 23.8516ZM235.742 27.9219C235.609 27.9219 235.493 27.9115 235.395 27.8906C235.296 27.8724 235.21 27.8503 235.137 27.8242V27.2969C235.217 27.3229 235.299 27.3424 235.383 27.3555C235.466 27.3711 235.56 27.3789 235.664 27.3789C235.841 27.3789 235.984 27.3294 236.094 27.2305C236.203 27.1315 236.258 26.9518 236.258 26.6914V21.7188H236.906V26.6758C236.906 26.9362 236.865 27.1589 236.781 27.3438C236.698 27.5312 236.57 27.6745 236.398 27.7734C236.227 27.8724 236.008 27.9219 235.742 27.9219ZM236.199 20.543C236.199 20.3971 236.236 20.2904 236.309 20.2227C236.384 20.1523 236.478 20.1172 236.59 20.1172C236.697 20.1172 236.788 20.1523 236.863 20.2227C236.941 20.2904 236.98 20.3971 236.98 20.543C236.98 20.6862 236.941 20.793 236.863 20.8633C236.788 20.9336 236.697 20.9688 236.59 20.9688C236.478 20.9688 236.384 20.9336 236.309 20.8633C236.236 20.793 236.199 20.6862 236.199 20.543ZM239.93 21.6406C240.294 21.6406 240.607 21.7214 240.867 21.8828C241.128 22.0443 241.327 22.2708 241.465 22.5625C241.603 22.8516 241.672 23.1901 241.672 23.5781V23.9805H238.715C238.723 24.4831 238.848 24.8659 239.09 25.1289C239.332 25.3919 239.673 25.5234 240.113 25.5234C240.384 25.5234 240.624 25.4987 240.832 25.4492C241.04 25.3997 241.257 25.3268 241.48 25.2305V25.8008C241.264 25.8971 241.049 25.9674 240.836 26.0117C240.625 26.056 240.375 26.0781 240.086 26.0781C239.674 26.0781 239.315 25.9948 239.008 25.8281C238.703 25.6589 238.466 25.4115 238.297 25.0859C238.128 24.7604 238.043 24.362 238.043 23.8906C238.043 23.4297 238.12 23.0312 238.273 22.6953C238.43 22.3568 238.648 22.0964 238.93 21.9141C239.214 21.7318 239.547 21.6406 239.93 21.6406ZM239.922 22.1719C239.576 22.1719 239.299 22.2852 239.094 22.5117C238.888 22.7383 238.766 23.0547 238.727 23.4609H240.992C240.99 23.2057 240.949 22.9818 240.871 22.7891C240.796 22.5938 240.68 22.4427 240.523 22.3359C240.367 22.2266 240.167 22.1719 239.922 22.1719ZM244.488 26.0781C244.103 26.0781 243.763 25.9987 243.469 25.8398C243.174 25.681 242.945 25.4388 242.781 25.1133C242.617 24.7878 242.535 24.3776 242.535 23.8828C242.535 23.3646 242.621 22.9414 242.793 22.6133C242.967 22.2826 243.207 22.0378 243.512 21.8789C243.816 21.7201 244.163 21.6406 244.551 21.6406C244.764 21.6406 244.97 21.6628 245.168 21.707C245.368 21.7487 245.533 21.8021 245.66 21.8672L245.465 22.4102C245.335 22.3581 245.184 22.3112 245.012 22.2695C244.842 22.2279 244.684 22.207 244.535 22.207C244.238 22.207 243.991 22.2708 243.793 22.3984C243.598 22.526 243.451 22.7135 243.352 22.9609C243.255 23.2083 243.207 23.513 243.207 23.875C243.207 24.2214 243.254 24.5169 243.348 24.7617C243.444 25.0065 243.586 25.194 243.773 25.3242C243.964 25.4518 244.201 25.5156 244.484 25.5156C244.711 25.5156 244.915 25.4922 245.098 25.4453C245.28 25.3958 245.445 25.3385 245.594 25.2734V25.8516C245.451 25.9245 245.29 25.9805 245.113 26.0195C244.939 26.0586 244.73 26.0781 244.488 26.0781ZM247.992 25.5469C248.099 25.5469 248.208 25.5378 248.32 25.5195C248.432 25.5013 248.523 25.4792 248.594 25.4531V25.957C248.518 25.9909 248.413 26.0195 248.277 26.043C248.145 26.0664 248.014 26.0781 247.887 26.0781C247.66 26.0781 247.454 26.0391 247.27 25.9609C247.085 25.8802 246.936 25.7448 246.824 25.5547C246.715 25.3646 246.66 25.1016 246.66 24.7656V22.2266H246.051V21.9102L246.664 21.6562L246.922 20.7266H247.312V21.7188H248.566V22.2266H247.312V24.7461C247.312 25.0143 247.374 25.2148 247.496 25.3477C247.621 25.4805 247.786 25.5469 247.992 25.5469ZM252.23 24.8281C252.23 25.1016 252.161 25.332 252.023 25.5195C251.888 25.7044 251.693 25.8438 251.438 25.9375C251.185 26.0312 250.883 26.0781 250.531 26.0781C250.232 26.0781 249.973 26.0547 249.754 26.0078C249.535 25.9609 249.344 25.8945 249.18 25.8086V25.2109C249.354 25.2969 249.562 25.375 249.805 25.4453C250.047 25.5156 250.294 25.5508 250.547 25.5508C250.917 25.5508 251.185 25.4909 251.352 25.3711C251.518 25.2513 251.602 25.0885 251.602 24.8828C251.602 24.7656 251.568 24.6628 251.5 24.5742C251.435 24.4831 251.324 24.3958 251.168 24.3125C251.012 24.2266 250.796 24.1328 250.52 24.0312C250.246 23.9271 250.009 23.8242 249.809 23.7227C249.611 23.6185 249.457 23.4922 249.348 23.3438C249.241 23.1953 249.188 23.0026 249.188 22.7656C249.188 22.4036 249.333 22.1263 249.625 21.9336C249.919 21.7383 250.305 21.6406 250.781 21.6406C251.039 21.6406 251.28 21.6667 251.504 21.7188C251.73 21.7682 251.941 21.8359 252.137 21.9219L251.918 22.4414C251.741 22.3659 251.552 22.3021 251.352 22.25C251.151 22.1979 250.947 22.1719 250.738 22.1719C250.439 22.1719 250.208 22.2214 250.047 22.3203C249.888 22.4193 249.809 22.5547 249.809 22.7266C249.809 22.8594 249.845 22.9688 249.918 23.0547C249.993 23.1406 250.113 23.2214 250.277 23.2969C250.441 23.3724 250.658 23.4609 250.926 23.5625C251.194 23.6615 251.426 23.7643 251.621 23.8711C251.816 23.9753 251.966 24.1029 252.07 24.2539C252.177 24.4023 252.23 24.5938 252.23 24.8281ZM253.176 25.5938C253.176 25.4115 253.22 25.2826 253.309 25.207C253.397 25.1289 253.505 25.0898 253.633 25.0898C253.766 25.0898 253.878 25.1289 253.969 25.207C254.06 25.2826 254.105 25.4115 254.105 25.5938C254.105 25.7734 254.06 25.9049 253.969 25.9883C253.878 26.069 253.766 26.1094 253.633 26.1094C253.505 26.1094 253.397 26.069 253.309 25.9883C253.22 25.9049 253.176 25.7734 253.176 25.5938ZM257.09 26.0781C256.704 26.0781 256.365 25.9987 256.07 25.8398C255.776 25.681 255.547 25.4388 255.383 25.1133C255.219 24.7878 255.137 24.3776 255.137 23.8828C255.137 23.3646 255.223 22.9414 255.395 22.6133C255.569 22.2826 255.809 22.0378 256.113 21.8789C256.418 21.7201 256.764 21.6406 257.152 21.6406C257.366 21.6406 257.572 21.6628 257.77 21.707C257.97 21.7487 258.134 21.8021 258.262 21.8672L258.066 22.4102C257.936 22.3581 257.785 22.3112 257.613 22.2695C257.444 22.2279 257.285 22.207 257.137 22.207C256.84 22.207 256.592 22.2708 256.395 22.3984C256.199 22.526 256.052 22.7135 255.953 22.9609C255.857 23.2083 255.809 23.513 255.809 23.875C255.809 24.2214 255.855 24.5169 255.949 24.7617C256.046 25.0065 256.188 25.194 256.375 25.3242C256.565 25.4518 256.802 25.5156 257.086 25.5156C257.312 25.5156 257.517 25.4922 257.699 25.4453C257.882 25.3958 258.047 25.3385 258.195 25.2734V25.8516C258.052 25.9245 257.892 25.9805 257.715 26.0195C257.54 26.0586 257.332 26.0781 257.09 26.0781ZM262.902 23.8516C262.902 24.2031 262.857 24.5169 262.766 24.793C262.674 25.069 262.543 25.3021 262.371 25.4922C262.199 25.6823 261.991 25.8281 261.746 25.9297C261.504 26.0286 261.229 26.0781 260.922 26.0781C260.635 26.0781 260.372 26.0286 260.133 25.9297C259.896 25.8281 259.69 25.6823 259.516 25.4922C259.344 25.3021 259.21 25.069 259.113 24.793C259.02 24.5169 258.973 24.2031 258.973 23.8516C258.973 23.3828 259.052 22.9844 259.211 22.6562C259.37 22.3255 259.596 22.0742 259.891 21.9023C260.188 21.7279 260.54 21.6406 260.949 21.6406C261.34 21.6406 261.681 21.7279 261.973 21.9023C262.267 22.0768 262.495 22.3294 262.656 22.6602C262.82 22.9883 262.902 23.3854 262.902 23.8516ZM259.645 23.8516C259.645 24.1953 259.69 24.4935 259.781 24.7461C259.872 24.9987 260.013 25.194 260.203 25.332C260.393 25.4701 260.638 25.5391 260.938 25.5391C261.234 25.5391 261.478 25.4701 261.668 25.332C261.861 25.194 262.003 24.9987 262.094 24.7461C262.185 24.4935 262.23 24.1953 262.23 23.8516C262.23 23.5104 262.185 23.2161 262.094 22.9688C262.003 22.7188 261.862 22.526 261.672 22.3906C261.482 22.2552 261.236 22.1875 260.934 22.1875C260.488 22.1875 260.161 22.3346 259.953 22.6289C259.747 22.9232 259.645 23.3307 259.645 23.8516ZM268.672 21.6406C269.143 21.6406 269.499 21.7643 269.738 22.0117C269.978 22.2565 270.098 22.651 270.098 23.1953V26H269.457V23.2266C269.457 22.8802 269.382 22.6211 269.23 22.4492C269.082 22.2747 268.861 22.1875 268.566 22.1875C268.152 22.1875 267.852 22.3073 267.664 22.5469C267.477 22.7865 267.383 23.1393 267.383 23.6055V26H266.738V23.2266C266.738 22.9948 266.704 22.8021 266.637 22.6484C266.572 22.4948 266.473 22.3802 266.34 22.3047C266.21 22.2266 266.044 22.1875 265.844 22.1875C265.56 22.1875 265.332 22.2461 265.16 22.3633C264.988 22.4805 264.863 22.6549 264.785 22.8867C264.71 23.1159 264.672 23.3984 264.672 23.7344V26H264.023V21.7188H264.547L264.645 22.3242H264.68C264.766 22.1758 264.874 22.0508 265.004 21.9492C265.134 21.8477 265.28 21.7708 265.441 21.7188C265.603 21.6667 265.775 21.6406 265.957 21.6406C266.283 21.6406 266.555 21.7018 266.773 21.8242C266.995 21.944 267.155 22.1276 267.254 22.375H267.289C267.43 22.1276 267.622 21.944 267.867 21.8242C268.112 21.7018 268.38 21.6406 268.672 21.6406Z" fill="white"/>
<g filter="url(#filter5_b_270_2867)">
<rect x="25.498" y="61" width="345" height="169" rx="12" fill="white" fill-opacity="0.25"/>
</g>
<g filter="url(#filter6_b_270_2867)">
<rect x="25.498" y="242" width="345" height="19" rx="9.5" fill="white" fill-opacity="0.25"/>
</g>
<g filter="url(#filter7_b_270_2867)">
<rect x="25.498" y="273" width="259" height="12" rx="6" fill="white" fill-opacity="0.25"/>
</g>
<g filter="url(#filter8_b_270_2867)">
<rect x="25.498" y="293" width="224" height="12" rx="6" fill="white" fill-opacity="0.25"/>
</g>
<defs>
<filter id="filter0_b_270_2867" x="-14.75" y="-14.75" width="493.5" height="369.5" filterUnits="userSpaceOnUse" color-interpolation-filters="sRGB">
<feFlood flood-opacity="0" result="BackgroundImageFix"/>
<feGaussianBlur in="BackgroundImageFix" stdDeviation="7.5"/>
<feComposite in2="SourceAlpha" operator="in" result="effect1_backgroundBlur_270_2867"/>
<feBlend mode="normal" in="SourceGraphic" in2="effect1_backgroundBlur_270_2867" result="shape"/>
</filter>
<filter id="filter1_d_270_2867" x="25" y="17" width="12.2024" height="12.2024" filterUnits="userSpaceOnUse" color-interpolation-filters="sRGB">
<feFlood flood-opacity="0" result="BackgroundImageFix"/>
<feColorMatrix in="SourceAlpha" type="matrix" values="0 0 0 0 0 0 0 0 0 0 0 0 0 0 0 0 0 0 127 0" result="hardAlpha"/>
<feOffset dx="0.297619" dy="0.297619"/>
<feComposite in2="hardAlpha" operator="out"/>
<feColorMatrix type="matrix" values="0 0 0 0 1 0 0 0 0 1 0 0 0 0 1 0 0 0 1 0"/>
<feBlend mode="normal" in2="BackgroundImageFix" result="effect1_dropShadow_270_2867"/>
<feBlend mode="normal" in="SourceGraphic" in2="effect1_dropShadow_270_2867" result="shape"/>
</filter>
<filter id="filter2_d_270_2867" x="44.0474" y="17" width="12.2024" height="12.2024" filterUnits="userSpaceOnUse" color-interpolation-filters="sRGB">
<feFlood flood-opacity="0" result="BackgroundImageFix"/>
<feColorMatrix in="SourceAlpha" type="matrix" values="0 0 0 0 0 0 0 0 0 0 0 0 0 0 0 0 0 0 127 0" result="hardAlpha"/>
<feOffset dx="0.297619" dy="0.297619"/>
<feComposite in2="hardAlpha" operator="out"/>
<feColorMatrix type="matrix" values="0 0 0 0 1 0 0 0 0 1 0 0 0 0 1 0 0 0 1 0"/>
<feBlend mode="normal" in2="BackgroundImageFix" result="effect1_dropShadow_270_2867"/>
<feBlend mode="normal" in="SourceGraphic" in2="effect1_dropShadow_270_2867" result="shape"/>
</filter>
<filter id="filter3_d_270_2867" x="63.0952" y="17" width="12.2024" height="12.2024" filterUnits="userSpaceOnUse" color-interpolation-filters="sRGB">
<feFlood flood-opacity="0" result="BackgroundImageFix"/>
<feColorMatrix in="SourceAlpha" type="matrix" values="0 0 0 0 0 0 0 0 0 0 0 0 0 0 0 0 0 0 127 0" result="hardAlpha"/>
<feOffset dx="0.297619" dy="0.297619"/>
<feComposite in2="hardAlpha" operator="out"/>
<feColorMatrix type="matrix" values="0 0 0 0 1 0 0 0 0 1 0 0 0 0 1 0 0 0 1 0"/>
<feBlend mode="normal" in2="BackgroundImageFix" result="effect1_dropShadow_270_2867"/>
<feBlend mode="normal" in="SourceGraphic" in2="effect1_dropShadow_270_2867" result="shape"/>
</filter>
<filter id="filter4_b_270_2867" x="78" y="-2" width="308" height="50" filterUnits="userSpaceOnUse" color-interpolation-filters="sRGB">
<feFlood flood-opacity="0" result="BackgroundImageFix"/>
<feGaussianBlur in="BackgroundImageFix" stdDeviation="7.5"/>
<feComposite in2="SourceAlpha" operator="in" result="effect1_backgroundBlur_270_2867"/>
<feBlend mode="normal" in="SourceGraphic" in2="effect1_backgroundBlur_270_2867" result="shape"/>
</filter>
<filter id="filter5_b_270_2867" x="10.498" y="46" width="375" height="199" filterUnits="userSpaceOnUse" color-interpolation-filters="sRGB">
<feFlood flood-opacity="0" result="BackgroundImageFix"/>
<feGaussianBlur in="BackgroundImageFix" stdDeviation="7.5"/>
<feComposite in2="SourceAlpha" operator="in" result="effect1_backgroundBlur_270_2867"/>
<feBlend mode="normal" in="SourceGraphic" in2="effect1_backgroundBlur_270_2867" result="shape"/>
</filter>
<filter id="filter6_b_270_2867" x="10.498" y="227" width="375" height="49" filterUnits="userSpaceOnUse" color-interpolation-filters="sRGB">
<feFlood flood-opacity="0" result="BackgroundImageFix"/>
<feGaussianBlur in="BackgroundImageFix" stdDeviation="7.5"/>
<feComposite in2="SourceAlpha" operator="in" result="effect1_backgroundBlur_270_2867"/>
<feBlend mode="normal" in="SourceGraphic" in2="effect1_backgroundBlur_270_2867" result="shape"/>
</filter>
<filter id="filter7_b_270_2867" x="10.498" y="258" width="289" height="42" filterUnits="userSpaceOnUse" color-interpolation-filters="sRGB">
<feFlood flood-opacity="0" result="BackgroundImageFix"/>
<feGaussianBlur in="BackgroundImageFix" stdDeviation="7.5"/>
<feComposite in2="SourceAlpha" operator="in" result="effect1_backgroundBlur_270_2867"/>
<feBlend mode="normal" in="SourceGraphic" in2="effect1_backgroundBlur_270_2867" result="shape"/>
</filter>
<filter id="filter8_b_270_2867" x="10.498" y="278" width="254" height="42" filterUnits="userSpaceOnUse" color-interpolation-filters="sRGB">
<feFlood flood-opacity="0" result="BackgroundImageFix"/>
<feGaussianBlur in="BackgroundImageFix" stdDeviation="7.5"/>
<feComposite in2="SourceAlpha" operator="in" result="effect1_backgroundBlur_270_2867"/>
<feBlend mode="normal" in="SourceGraphic" in2="effect1_backgroundBlur_270_2867" result="shape"/>
</filter>
<linearGradient id="paint0_linear_270_2867" x1="10" y1="10.5" x2="310" y2="310.5" gradientUnits="userSpaceOnUse">
<stop stop-color="white"/>
<stop offset="0.575256" stop-color="white" stop-opacity="0.111467"/>
<stop offset="1" stop-color="white" stop-opacity="0"/>
</linearGradient>
<linearGradient id="paint1_linear_270_2867" x1="7.5" y1="11" x2="116" y2="170" gradientUnits="userSpaceOnUse">
<stop stop-color="white"/>
<stop offset="1" stop-color="white" stop-opacity="0"/>
</linearGradient>
</defs>
</svg>
