<svg width="82" height="82" viewBox="0 0 82 82" fill="none" xmlns="http://www.w3.org/2000/svg">
<path d="M16.9766 3.34727V6.69453L16.0637 6.79063C11.1148 7.36719 7.36719 11.1148 6.79062 16.0477L6.69453 16.9766H3.34727H0V20.5V24.0234H3.36328H6.72656V27.3867V30.75H3.36328H0V34.1934V37.6367H3.36328H6.72656V41V44.3633H3.36328H0V47.8066V51.25H3.36328H6.72656V54.6133V57.9766H3.36328H0V61.5V65.0234H3.36328H6.72656V70.1484V75.2734H11.8516H16.9766V78.6367V82H20.5H24.0234V78.6367V75.2734H27.3867H30.75V78.6367V82H34.1934H37.6367V78.6367V75.2734H41H44.3633V78.6367V82H47.8066H51.25V78.6367V75.2734H54.6133H57.9766V78.6367V82H61.5H65.0234V78.6367V75.2734H70.1484H75.2734V70.1484V65.0234H78.6367H82V61.5V57.9766H78.6367H75.2734V54.6133V51.25H78.6367H82V47.8066V44.3633H78.6367H75.2734V41V37.6367H78.6367H82V34.1934V30.75H78.6367H75.2734V27.3867V24.0234H78.6367H82V20.5V16.9766H78.6527H75.3055L75.2094 16.0477C74.6328 11.1148 70.8852 7.36719 65.9523 6.79063L65.0234 6.69453V3.34727V0H61.5H57.9766V3.36328V6.72656H54.6133H51.25V3.36328V0H47.8066H44.3633V3.36328V6.72656H41H37.6367V3.36328V0H34.1934H30.75V3.36328V6.72656H27.3867H24.0234V3.36328V0H20.5H16.9766V3.34727ZM66.1125 14.0297C66.8973 14.35 67.5539 14.9906 67.9223 15.7754C68.2105 16.384 68.2266 17.441 68.2266 42.3133V68.2266H41H13.7734V42.3613C13.7734 19.3309 13.8055 16.416 14.0297 15.8875C14.35 15.1027 14.9906 14.4461 15.7754 14.0777C16.384 13.7895 17.409 13.7734 40.968 13.7734C62.7973 13.7734 65.584 13.8055 66.1125 14.0297Z" fill="white"/>
<path d="M31.9992 24.1676C30.702 24.584 29.8371 25.1445 28.8762 26.1375C27.9152 27.1625 27.3707 28.1875 27.0184 29.6289C26.2656 32.6559 20.5 57.7043 20.5 57.9125C20.5 58.1047 21.0125 58.1367 24.0555 58.1047L27.627 58.0566L27.9953 56.407L28.3797 54.7734H34.1773H39.975L40.3594 56.4551L40.7277 58.1367H44.2992C46.2691 58.1367 47.8867 58.0887 47.8867 58.0086C47.8867 57.9445 46.3812 51.3781 44.5234 43.4184C42.041 32.6719 41.048 28.684 40.6957 27.9313C40.1191 26.698 38.902 25.3527 37.8289 24.7762C36.1473 23.8633 33.7449 23.607 31.9992 24.1676ZM34.5137 31.2625C34.85 32.6879 38.1012 46.7977 38.1973 47.198L38.3094 47.7266H34.1613H30.0133L31.9031 39.5105C32.9441 35.0102 33.841 31.2145 33.873 31.1023C33.9852 30.782 34.4176 30.8781 34.5137 31.2625Z" fill="white"/>
<path d="M51.25 41V58.1367H54.6934H58.1367V41V23.8633H54.6934H51.25V41Z" fill="white"/>
</svg>
