<svg width="41" height="40" viewBox="0 0 41 40" fill="none" xmlns="http://www.w3.org/2000/svg">
<path d="M1.40909 1C0.545455 1.95 0.5 2.65 0.5 16C0.5 29.35 0.545455 30.05 1.40909 31C2.22727 31.9 2.90909 32 9.59091 32H16.8636V34V36H15.0455H13.2273V38V40H20.5H27.7727V38V36H25.9545H24.1364V34V32H31.4091C38.0909 32 38.7727 31.9 39.5909 31C40.4545 30.05 40.5 29.35 40.5 16C40.5 2.65 40.4545 1.95 39.5909 1C38.7273 0.0499992 38.0909 0 20.5 0C2.90909 0 2.27273 0.0499992 1.40909 1ZM36.8636 16V28H20.5H4.13636V16V4H20.5H36.8636V16Z" fill="white"/>
<path d="M25.8966 10.6001C25.0784 11.6001 25.0784 11.6501 27.033 13.8501L29.033 16.1001L27.033 18.3501L25.033 20.6001L26.033 21.7001L27.033 22.8501L30.0784 19.4501L33.1693 16.1001L30.2148 12.8501C28.6239 11.0501 27.1693 9.6001 26.9875 9.6001C26.8511 9.6001 26.3511 10.0501 25.8966 10.6001Z" fill="white"/>
<path d="M10.2146 12.8499L7.26001 16.0999L10.3509 19.4499L13.3964 22.8499L14.3964 21.6999L15.3964 20.5999L13.3964 18.3499L11.3964 16.0999L13.3964 13.8499C15.3509 11.6499 15.3509 11.5999 14.5327 10.5999C14.0782 10.0499 13.5782 9.59985 13.4418 9.59985C13.26 9.59985 11.8055 11.0499 10.2146 12.8499Z" fill="white"/>
<path d="M18.6237 15.55C17.6692 19.95 16.9419 23.7 17.0782 23.85C17.2146 23.95 17.9419 24.2 18.6692 24.4L19.9873 24.7L21.8055 16.65C22.7601 12.25 23.4873 8.49995 23.351 8.34995C23.2146 8.24995 22.4873 7.99995 21.7601 7.79995L20.4419 7.49995L18.6237 15.55Z" fill="white"/>
</svg>
