<svg width="40" height="40" viewBox="0 0 40 40" fill="none" xmlns="http://www.w3.org/2000/svg">
<path d="M5.74073 0.0956726C4.31481 0.361702 3.23148 0.878109 2.12037 1.80921C1.18518 2.59947 0.675925 3.28019 0.25 4.32084L0 4.94678V20.0087V35.0706L0.25 35.6966C0.675925 36.7294 1.18518 37.418 2.12037 38.2082C3.05555 38.9985 3.87036 39.4288 5.09259 39.7887L5.83333 40H16.3426H26.8518L27.5926 39.7887C28.8148 39.4288 29.6296 38.9985 30.5648 38.2082C31.5 37.418 32.0092 36.7294 32.4259 35.6966L32.6851 35.0706V32.6373V30.2117L32.4629 29.93C32.0555 29.4371 31.6851 29.2806 30.8796 29.2806C30.074 29.2806 29.7037 29.4371 29.2963 29.93C29.0833 30.2039 29.074 30.2586 29.0185 32.246C28.9537 34.4838 28.8981 34.7342 28.3796 35.4227C27.7963 36.1974 26.8611 36.6903 25.7407 36.8311C24.8703 36.9328 7.8148 36.9328 6.94443 36.8311C5.25925 36.6277 3.99074 35.5558 3.74999 34.1317C3.62962 33.3806 3.62962 6.63685 3.74999 5.88571C3.99074 4.46167 5.25925 3.38974 6.94443 3.1863C7.8148 3.08458 24.8703 3.08458 25.7407 3.1863C27.4259 3.38974 28.6944 4.46167 28.9351 5.88571C28.9814 6.18304 29.0277 7.0359 29.0277 7.77139C29.0277 9.01546 29.0463 9.13283 29.2407 9.45363C29.9074 10.5256 31.8425 10.5177 32.5185 9.4458C32.7407 9.09371 32.7407 9.08588 32.7129 7.02024C32.6759 5.0172 32.6666 4.92331 32.4259 4.32084C32.0185 3.29584 31.5092 2.6073 30.5648 1.80921C29.6296 1.01895 28.8148 0.588608 27.5926 0.228687L26.8518 0.0174294L16.5741 0.00177765C8.3148 -0.0060463 6.18518 0.00960541 5.74073 0.0956726Z" fill="white"/>
<path d="M13.7036 5.64306C12.361 6.15165 12.2499 7.80259 13.5184 8.46766L13.9628 8.70239H16.3425H18.7221L19.1665 8.46766C19.8147 8.13121 20.0739 7.69305 20.0276 7.01233C19.9906 6.4255 19.7684 6.0734 19.2313 5.76043C18.9073 5.57264 18.8702 5.57264 16.4443 5.55699C14.5369 5.54134 13.9165 5.55699 13.7036 5.64306Z" fill="white"/>
<path d="M26.0186 12.333C25.4909 12.5286 25.1761 12.8807 24.9631 13.4989C24.8612 13.7884 23.8798 16.699 22.7779 19.9696C20.6668 26.237 20.6112 26.4404 20.9353 27.0116C21.3057 27.6688 22.1946 27.9974 23.0835 27.8018C23.6298 27.6845 24.1575 27.3715 24.352 27.0585C24.4261 26.9333 25.4446 23.9757 26.6205 20.4704C28.5742 14.6647 28.7594 14.0622 28.7316 13.6162C28.7038 13.2172 28.6483 13.0763 28.4168 12.8338C27.8149 12.2078 26.8612 12.0044 26.0186 12.333Z" fill="white"/>
<path d="M15.5092 13.8117C14.9166 14.07 10.111 17.5518 9.7962 17.9508C9.16657 18.7489 9.07397 19.015 9.07397 20.0869C9.07397 21.0258 9.08323 21.0884 9.37027 21.597C9.53694 21.8943 9.7962 22.2699 9.9536 22.4342C10.2684 22.7707 14.9351 26.0882 15.4536 26.3542C15.9258 26.589 16.7129 26.589 17.2591 26.3542C18.2777 25.9082 18.5369 24.6016 17.7499 23.8895C17.611 23.7722 16.5184 22.9741 15.324 22.1212C14.1295 21.2684 13.074 20.5016 12.9814 20.4155C12.5832 20.0478 12.7036 19.9304 15.3147 18.076C16.7777 17.0432 17.8517 16.2217 17.9814 16.0417C18.2129 15.7131 18.2684 15.0323 18.0925 14.6333C17.9629 14.336 17.4721 13.9135 17.111 13.7804C16.6851 13.624 15.8888 13.6396 15.5092 13.8117Z" fill="white"/>
<path d="M32.037 13.7804C31.6851 13.9134 31.2036 14.3438 31.074 14.6333C31.0185 14.7584 30.9722 15.0636 30.9722 15.314C30.9722 15.6974 31.0185 15.8226 31.2777 16.1277C31.4351 16.3233 32.6296 17.2466 33.9166 18.1699C36.574 20.0947 36.5462 20.0477 35.8611 20.6033C35.6388 20.7832 34.5925 21.5578 33.5185 22.3324C32.4536 23.1071 31.4814 23.8269 31.3703 23.9286C31.0833 24.1946 30.9722 24.492 30.9722 25.0084C30.9722 25.5874 31.3333 26.1038 31.9074 26.3542C32.4444 26.5811 33.2407 26.5889 33.7036 26.362C34.1944 26.1116 38.861 22.7237 39.1573 22.4029C39.2962 22.2464 39.537 21.8865 39.7036 21.5891C39.9907 21.0884 39.9999 21.0258 39.9999 20.079C39.9999 19.1088 39.9999 19.101 39.6573 18.5142C39.4629 18.2012 39.1759 17.8021 39.0092 17.6456C38.5277 17.184 33.9259 13.8978 33.5925 13.7804C33.2129 13.6396 32.3981 13.6474 32.037 13.7804Z" fill="white"/>
<path d="M15.5556 31.4557C14.2223 31.9722 14.1019 33.6231 15.3519 34.2725C16.2593 34.7498 17.4908 34.4838 17.9815 33.7013C18.1667 33.4118 18.2038 33.2632 18.176 32.8328C18.1389 32.246 17.9167 31.8939 17.3797 31.5809C16.9908 31.354 16.0001 31.2914 15.5556 31.4557Z" fill="white"/>
</svg>
