<svg width="41" height="40" viewBox="0 0 41 40" fill="none" xmlns="http://www.w3.org/2000/svg">
<path d="M2.26191 0.0717125C1.50953 0.231075 0.776193 0.796812 0.585717 1.37052C0.433336 1.8486 0.538098 2.48606 0.833336 2.91633C1.72857 4.19123 4.14762 4.05578 4.83334 2.68526L4.97619 2.39044H9.48095C13.9 2.39841 13.9667 2.39841 13.5476 2.54183C8.3 4.28685 4.20476 8.19123 2.77619 12.7888C2.47143 13.7928 2.21429 15.1554 2.21429 15.8088V16.255H1.54762C0.490479 16.255 0.500003 16.239 0.500003 18.1514C0.500003 19.5857 0.519051 19.745 0.671432 19.8645C0.823812 19.9841 1.11905 20 2.80476 20C4.50953 20 4.77619 19.9841 4.89048 19.8645C4.99524 19.7689 5.02381 19.3705 5.02381 18.1116C5.02381 16.1992 5.05238 16.255 4.00476 16.255H3.36667L3.41429 15.7131C3.84286 11.251 6.59524 7.29084 10.9762 4.84462C13.0238 3.70518 15.2619 2.97211 17.8619 2.59761L18.2143 2.54183V3.02789C18.2143 3.8247 18.2238 3.8247 20.5 3.8247C22.7762 3.8247 22.7857 3.8247 22.7857 3.02789V2.54183L23.1476 2.58964C24.0619 2.71713 25.8905 3.13944 26.7857 3.42629C31.2714 4.88446 34.8333 7.92829 36.5381 11.7291C37.0905 12.9641 37.4048 14.1992 37.5952 15.7928L37.6429 16.255H36.9952C35.9476 16.255 35.9762 16.1912 35.9762 18.1116C35.9762 19.3705 36.0048 19.7689 36.1095 19.8645C36.2238 19.9841 36.4905 20 38.2143 20C40.0048 20 40.1952 19.9841 40.3381 19.8566C40.4809 19.7291 40.5 19.49 40.5 18.1434C40.5 16.247 40.5095 16.255 39.4714 16.255H38.8143L38.7571 15.4661C38.6333 13.8247 37.9857 11.7769 37.0809 10.1594C35.1381 6.7251 31.5952 3.92032 27.4524 2.54183C27.0333 2.39841 27.1 2.39841 31.519 2.39044H36.0238L36.1667 2.68526C36.8524 4.05578 39.2714 4.19123 40.1667 2.91633C40.6619 2.20717 40.5762 1.28287 39.9571 0.709164C38.8429 -0.326694 36.9095 -0.135458 36.2143 1.0757L36.0048 1.43426H29.3952H22.7857V0.916334C22.7857 0.462151 22.7571 0.366533 22.5476 0.199203C22.319 0 22.3 0 20.5 0C18.7 0 18.681 0 18.4524 0.199203C18.2429 0.366533 18.2143 0.462151 18.2143 0.916334V1.43426H11.6048H4.99524L4.78572 1.0757C4.51905 0.621513 4.01429 0.270916 3.41429 0.119522C2.90953 -0.0079689 2.70953 -0.0159378 2.26191 0.0717125Z" fill="white"/>
<path d="M19.0905 5.63342C18.9096 5.6892 8.30957 23.4661 8.30957 23.7051C8.30957 23.8167 9.22386 25.4262 10.3286 27.2908L12.3572 30.6772H20.5H28.6429L30.6715 27.2908C31.7762 25.4262 32.6905 23.8167 32.6905 23.7051C32.6905 23.5936 30.2905 19.49 27.3572 14.5816C22.7953 6.94816 21.9953 5.65733 21.7953 5.60952C21.4619 5.54577 21.2143 5.63342 21.0905 5.8645C21.0048 6.00792 20.9762 8.10354 20.9762 13.6733V21.2828L21.2048 21.4581C21.3286 21.5537 21.6048 21.729 21.8048 21.8406C22.5762 22.2709 22.8715 23.3227 22.4334 24.0239C21.3762 25.6972 18.3858 25.1394 18.3667 23.2669C18.3572 22.6852 18.681 22.1274 19.1953 21.8406C19.3953 21.729 19.6715 21.5537 19.7953 21.4581L20.0239 21.2828V13.6653C20.0239 5.99995 20.0143 5.81669 19.7 5.64139C19.5858 5.56968 19.281 5.56968 19.0905 5.63342Z" fill="white"/>
<path d="M10.6619 31.6972C10.519 31.8247 10.5 32.0638 10.5 33.4183C10.5 34.3506 10.5381 35.0518 10.5952 35.1474C10.6905 35.2988 10.9095 35.2988 20.5 35.2988C30.0905 35.2988 30.3095 35.2988 30.4048 35.1474C30.4619 35.0518 30.5 34.3427 30.5 33.4024C30.5 31.9682 30.4809 31.8088 30.3286 31.6893C30.1667 31.5618 29.3476 31.5538 20.481 31.5538C11.2333 31.5538 10.8048 31.5618 10.6619 31.6972Z" fill="white"/>
<path d="M12.1191 37.8884C12.1191 39.6096 12.1191 39.6096 12.3572 39.8008L12.5858 40H20.5001H28.4144L28.6429 39.8008C28.881 39.6096 28.881 39.6096 28.881 37.8884V36.1753H20.5001H12.1191V37.8884Z" fill="white"/>
</svg>
